<?xml version="1.0" encoding="UTF-8"?>
<!DOCTYPE svg PUBLIC "-//W3C//DTD SVG 1.1//EN" "http://www.w3.org/Graphics/SVG/1.1/DTD/svg11.dtd">
<!-- Creator: CorelDRAW 2019 (64 Bit) -->
<svg xmlns="http://www.w3.org/2000/svg" xml:space="preserve" width="223.141mm" height="66.4358mm" version="1.1" style="shape-rendering:geometricPrecision; text-rendering:geometricPrecision; image-rendering:optimizeQuality; fill-rule:evenodd; clip-rule:evenodd"
viewBox="0 0 22313 6643.26"
 xmlns:xlink="http://www.w3.org/1999/xlink">
 <defs>
  <style type="text/css">
   <![CDATA[
    .str0 {stroke:white;stroke-width:20;stroke-miterlimit:22.9256}
    .str1 {stroke:#E40E20;stroke-width:7.62;stroke-miterlimit:22.9256}
    .str3 {stroke:#EB0000;stroke-width:7.62;stroke-miterlimit:22.9256}
    .str2 {stroke:white;stroke-width:7.62;stroke-miterlimit:22.9256}
    .fil4 {fill:none;fill-rule:nonzero}
    .fil6 {fill:#202024}
    .fil2 {fill:#E40E20}
    .fil0 {fill:white}
    .fil7 {fill:#202024;fill-rule:nonzero}
    .fil3 {fill:#E40E20;fill-rule:nonzero}
    .fil5 {fill:white;fill-rule:nonzero}
    .fil1 {fill:url(#id0)}
   ]]>
  </style>
  <linearGradient id="id0" gradientUnits="userSpaceOnUse" x1="9012.67" y1="811.37" x2="13296.35" y2="5831.91">
   <stop offset="0" style="stop-opacity:1; stop-color:black"/>
   <stop offset="0.490196" style="stop-opacity:1; stop-color:black"/>
   <stop offset="0.721569" style="stop-opacity:1; stop-color:black"/>
   <stop offset="0.831373" style="stop-opacity:1; stop-color:black"/>
   <stop offset="1" style="stop-opacity:1; stop-color:white"/>
  </linearGradient>
 </defs>
 <g id="Camada_x0020_1">
  <metadata id="CorelCorpID_0Corel-Layer"/>
  <g id="_2158249021008">
   <path class="fil0 str0" d="M1315.16 10l19682.69 0c720.7,0 1305.16,481.38 1305.16,1074.98l0 4473.31c0,593.59 -584.46,1074.97 -1305.16,1074.97l-19682.69 0.01c-720.69,-0.01 -1305.15,-481.39 -1305.15,-1074.99l-0.01 -4473.3c0.01,-593.6 584.47,-1074.98 1305.17,-1074.98z"/>
   <g>
    <circle class="fil1" cx="11154.51" cy="3321.64" r="3299.84"/>
    <g>
     <path class="fil0" d="M11274.34 2897.73c121.31,4.01 85.02,30.6 170.73,-217.11 17.19,-49.66 71.74,-183.71 76.09,-225.54l-92.32 0c-38.93,110.56 -126.52,344.18 -154.5,442.65z"/>
     <path class="fil0" d="M12258.12 2581.78l-2.33 -41.71 -35.16 0.94 0.02 271.75 35.54 2.31c0,-88.37 -18.91,-233.01 74.57,-244.88 100.61,-12.78 75.3,125.37 75.3,242.57l37.08 2.31c0,-83.49 -18.08,-221.02 62.01,-242.69 118.93,-32.16 84.26,134.83 87.15,215.65 0.93,26.02 15.42,41.26 32.98,23.33 10.5,-10.73 4.94,-48.98 4.86,-67.33 -0.35,-76.04 18.01,-212.94 -95.69,-210.88 -22.74,0.41 -40.06,6.67 -57.55,17.5 -21.26,13.18 -19.26,17.71 -36.14,34.39l-8.41 7.53c-11.72,-34.63 -33.95,-59.41 -83.43,-59.32 -48.75,0.09 -65.53,25.56 -90.8,48.53z"/>
     <path class="fil0" d="M11891.19 2648.18c28.43,-110.03 172.17,-104.74 197.37,-0.13l-197.37 0.13zm229.82 87.33l-34.04 -13.22c-32.85,90.06 -187.68,96.89 -201.58,-41.63l244.5 -0.16c5.63,-177.45 -241.22,-199.76 -278.26,-38.4 -42.67,185.94 215.43,245.41 269.38,93.41z"/>
     <path class="fil0" d="M13539.27 2577.53c139.01,-53.2 199.87,156.43 75.64,202.63 -132.37,49.22 -212.78,-150.15 -75.64,-202.63zm140.21 198.14l3.97 39.64 28.92 -0.21c10.32,-37.73 3.83,-222.04 3.83,-275.04l-35.54 0 0.01 41.72c-22.79,-9.26 -16.93,-23.08 -60.48,-39.95 -163.56,-63.37 -271.59,185.72 -110.39,265.09 82.82,40.77 125.43,-4.87 169.68,-31.25z"/>
     <path class="fil0" d="M12825.51 2575.6c136.41,-47.94 202.84,161.72 67.79,206.12 -130.45,42.88 -203.32,-158.49 -67.79,-206.12zm139.82 198.53l2.04 41.1c45.1,-0.16 33.53,5.37 33.53,-114.48 0,-52.54 0,-105.08 0,-157.61l-35.52 -3.73 -0.05 43.92c-17.1,-9.76 -68.08,-75.72 -157.39,-41.51 -119.32,45.7 -124.28,212.75 -10.85,266.98 77.16,36.89 127.9,-7.29 168.24,-34.66z"/>
     <path class="fil0" d="M13141.85 2581.78l-0.46 -41.72 -37.02 0.93 0.02 271.77 37.08 2.31c0,-104.38 -21.83,-237.69 86.61,-247.53 119.5,-10.83 64.31,167.64 81.77,247.56l30.96 0c11.28,-51.59 8.7,-204.25 -17.79,-241.76 -46.43,-65.72 -121.16,-45.05 -181.16,8.44z"/>
     <path class="fil0" d="M11611.54 2789.58c22.72,15.32 59.1,40.81 106.08,28.48 32.82,-8.6 58.26,-40.53 56.93,-80.11 -3.22,-95.41 -138.6,-64.42 -113.18,-156.94 42,-25.06 56.81,-11.34 88.84,12.75l22.16 -22.5c-84.96,-104.64 -222.02,24.97 -107.27,102.72 26.65,18.07 114.58,54.05 59.35,100.75 -62.43,52.77 -90.57,-66.37 -112.89,14.86z"/>
     <path class="fil2" d="M9233.48 3275.44c1.72,-70.55 42.43,-108.37 114.93,-95.02 72.51,13.37 63.4,79.54 63.63,152.04l168.92 -5.32c39.09,-276.43 -215.72,-349.69 -392.83,-276.96 -184.35,75.71 -152.69,359.51 -60.05,459.61 18.05,19.5 29.12,30.19 48.65,49.22 64.21,62.56 197.28,124.86 221.66,237.73 18.64,86.3 -7.93,154.24 -90.06,159.72 -103.44,6.91 -89.74,-80.42 -89.52,-166.62l-167.74 14.13c-12.24,44.65 -1.09,137.94 13.49,178.8 68.2,191.17 326.79,131.51 416.13,64.55 75.21,-56.38 120.47,-153.78 99.75,-289.33 -10,-65.4 -29.28,-94.7 -60.15,-138.22 -83.69,-119.5 -290.26,-179.61 -286.82,-344.33z"/>
     <path class="fil2" d="M10684.41 3344.03c10.43,33.24 66.65,147.31 65.5,165.02 -1.71,26.06 -196.15,443.45 -202.25,492.34l166.4 -6.06c35.76,-56.45 108.38,-292.3 139.27,-328.56 21.09,33.41 49.18,118.11 66.29,160.6 21.97,54.53 44.14,110 65.41,163.07l188.12 0c-7.29,-41.61 -201.52,-460.98 -200.99,-485.92 0.31,-14.39 57.41,-141.8 67.94,-166.84l126.29 -296.81 -173.61 -0.45 -115.01 293.89c-1.41,1.91 -10.03,7.99 -11.29,10.09l-9.6 -12.79c-0.79,-45.47 -91.47,-226.29 -107.57,-291.19l-192.03 0.13 127.14 303.48z"/>
     <path class="fil2" d="M8591.59 4024.79l-0.79 163.41c116.64,0 217.34,-32.55 274.31,-95.32 73.37,-80.85 66.67,-175.25 69.42,-304.48 2.41,-113.06 8.32,-668.24 1.1,-745.84l-180.16 -1.03c-11.65,175.64 -0.62,389.96 -0.38,567.66 0.13,94.64 -0.7,189.62 -0.93,284.39 -0.27,108.14 -57.54,133.47 -162.56,131.2z"/>
     <path class="fil2" d="M12534.2 3461.38l2.17 584.82 179.68 17.29 0.64 -433.16c37.37,-7.75 105.38,0.4 133.85,20.96 80.92,58.43 6.06,300.67 57.04,431.26l182.21 20.51c-49.11,-147.47 9.53,-341.01 -43.23,-462.12 -9.66,-22.16 -20.76,-37.07 -35.59,-51.17l-48.4 -33.33c-0.83,-0.59 -2.55,-1.83 -3.73,-2.86 51.64,-29.83 88.75,-52.65 99.59,-123.57 13.53,-43.04 12.07,-166.21 3.76,-212.53 -39.91,-222.45 -296.26,-177.22 -529.93,-177.22l1.94 421.12zm347.97 -27.15c-34.41,29.12 -23.96,59.36 -166.3,42.97l-0.74 -22 -0.01 -264.58c222.08,-22.1 162.93,81.53 167.05,243.61z"/>
     <path class="fil2" d="M13344.53 3198.28c-0.02,157.56 -0.14,315.28 2.35,472.72 1.23,77.93 0.21,156.8 0.21,234.84l-0.25 204.14c3.13,32.51 -1.87,11.88 6.79,22.02 13.96,11.29 146.71,26.64 173.85,26.55l-0.52 -953.5 132.79 2.33 54.83 0.06 -0.29 -163.86 -555.7 -1.79 -1.81 154.86 187.75 1.64z"/>
     <path class="fil2" d="M11922.43 3140.74c7.12,190.57 1.62,451.02 1.7,653.92 0.01,36.81 2.09,68.31 2.05,104.84 -0.05,31.02 -5.46,87.48 7.58,107.72l484.23 29.96 -1.88 -142.6 -310.05 -18.09 0.49 -297.91 247.39 9.28 -1.89 -144.44 -246.93 -6.69 0.3 -257.78 309.9 5.64 0.23 -142.61 -493.35 -1.66 0.23 100.43z"/>
     <polygon class="fil2" points="9980.35,3677.95 9980.73,4030.82 10472.98,4003.05 10473.11,3865.77 10161.16,3877.98 10162.81,3671.77 10162.9,3580.84 10409.81,3572.2 10410.16,3442.34 10406.43,3432.84 10163.04,3437.98 10162.69,3386.05 10163.84,3185.1 10474.85,3178.93 10474.96,3042.06 9981.81,3040.43 9981.99,3392.23 "/>
     <path class="fil2" d="M11459.7 3178.55c148.57,0 169.05,-11.99 169.21,146.36 0.16,159.03 -22.13,143.89 -171.8,143.89l2.59 -290.26zm-184.19 387.42l1.4 422.47 180.36 3.84 0.47 -385.93c37.12,0.13 125.93,3.99 179.3,-4.97 196.23,-32.97 220.84,-313.14 140.79,-459.1 -36.98,-60.04 -103,-95.38 -201.25,-101.38 -74.86,-4.57 -229.46,-6.63 -301.87,0.87l0.79 524.2z"/>
    </g>
    <path class="fil3" d="M12208.18 5979.28c9.23,-7.76 19.2,-12.32 30.02,-13.77 10.82,-1.47 21.59,0.27 32.41,5.22 10.77,4.93 20.69,12.84 29.72,23.6 9.22,10.97 15.34,22.21 18.4,33.78 3.05,11.52 3.01,22.58 -0.19,33.11 -3.2,10.54 -9.41,19.67 -18.63,27.38 -8.18,6.91 -16.88,11.15 -26.02,12.65 -9.16,1.55 -18.1,0.33 -26.8,-3.62l9.78 11.66c2.16,2.59 3.16,5.32 2.96,8.18 -0.13,2.83 -1.64,5.42 -4.37,7.72 -2.73,2.3 -5.55,3.3 -8.47,3.06 -2.91,-0.29 -5.45,-1.69 -7.62,-4.28l-115.32 -137.44c-2.07,-2.44 -2.97,-5.12 -2.73,-8.04 0.29,-2.91 1.78,-5.5 4.52,-7.81 2.73,-2.3 5.5,-3.33 8.27,-3.1 2.78,0.28 5.28,1.7 7.43,4.29l48.6 57.89c-2.4,-9.26 -2.03,-18.29 1.08,-27.04 3.1,-8.75 8.74,-16.56 16.97,-23.43zm76.12 97.75c10.24,-8.56 15.19,-18.77 14.81,-30.62 -0.38,-11.86 -5.92,-24.18 -16.7,-37.02 -10.49,-12.51 -21.49,-19.9 -32.87,-22.11 -11.44,-2.16 -22.26,0.99 -32.51,9.59 -10.21,8.57 -15.19,18.68 -14.96,30.25 0.28,11.57 5.79,23.75 16.52,36.55 10.76,12.84 21.86,20.41 33.25,22.76 11.43,2.31 22.25,-0.8 32.46,-9.4z"/>
    <path id="1" class="fil3" d="M12360.51 5861.38c-1.32,-4.79 -0.29,-8.6 3.19,-11.52 2.17,-1.83 4.71,-2.72 7.62,-2.72 2.96,-0.01 5.32,1.08 7.16,3.19 1.08,1.32 1.78,2.73 2.01,4.19l49.16 181.93c0.61,2.16 0.61,4.27 -0.05,6.3 -0.62,2.02 -1.65,3.62 -3.11,4.84 -2.16,1.79 -4.65,2.73 -7.43,2.74 -2.82,0.04 -5.12,-1.04 -6.96,-3.21 -0.94,-1.17 -1.64,-2.53 -2.01,-4.18l-12.28 -45.34 -120.36 -56.59c-1.41,-0.52 -2.63,-1.37 -3.58,-2.5 -1.83,-2.16 -2.44,-4.84 -1.83,-8.08 0.61,-3.2 2.07,-5.79 4.38,-7.72 1.45,-1.22 3.24,-1.97 5.31,-2.25 2.11,-0.29 4.18,0.09 6.21,1.08l104.08 50.75 -31.5 -110.91z"/>
    <path id="2" class="fil3" d="M12548.79 5877.22c-2.72,2.26 -5.59,3.34 -8.61,3.15 -2.96,-0.18 -5.54,-1.59 -7.7,-4.18l-113.35 -135.08c-2.17,-2.59 -3.11,-5.37 -2.78,-8.33 0.32,-3.01 1.88,-5.64 4.61,-7.9l80.81 -67.83c2.59,-2.15 5.17,-3.24 7.66,-3.15 2.54,0.1 4.81,1.32 6.73,3.62 1.93,2.31 2.73,4.71 2.36,7.2 -0.34,2.49 -1.84,4.85 -4.43,7l-72.39 60.78 44.45 52.91 68.06 -57.1c2.59,-2.15 5.13,-3.19 7.67,-3.15 2.54,0.1 4.75,1.32 6.72,3.63 1.94,2.3 2.69,4.7 2.36,7.19 -0.38,2.49 -1.83,4.85 -4.42,7.01l-68.07 57.15 46.43 55.32 72.39 -60.78c2.59,-2.16 5.13,-3.24 7.57,-3.2 2.5,0 4.75,1.22 6.78,3.67 1.97,2.3 2.72,4.7 2.4,7.25 -0.38,2.49 -1.84,4.84 -4.42,7.01l-80.82 67.82z"/>
    <path id="3" class="fil3" d="M12624.9 5630.31c5.69,-5.5 10.77,-5.6 15.24,-0.24 1.93,2.31 2.82,4.66 2.68,7.15 -0.13,2.45 -1.7,5.13 -4.61,8.1l-5.97 6.06c-8.9,8.99 -13.22,18.44 -12.9,28.32 0.39,9.93 3.91,18.91 10.69,26.95l44.07 52.54c2.4,2.87 3.43,5.69 3.06,8.47 -0.37,2.77 -1.88,5.27 -4.47,7.43 -2.58,2.16 -5.36,3.2 -8.28,3.06 -2.91,-0.1 -5.55,-1.55 -7.81,-4.29l-76.53 -91.19c-2.3,-2.73 -3.25,-5.61 -2.77,-8.57 0.47,-2.96 1.92,-5.46 4.37,-7.53 2.31,-1.92 4.9,-2.77 7.72,-2.58 2.87,0.14 5.41,1.54 7.57,4.14l10.16 12.09c-2.31,-8.85 -2.08,-17.27 0.7,-25.26 2.79,-7.95 7.53,-15.24 14.21,-21.87l2.87 -2.78z"/>
    <path id="4" class="fil3" d="M12748.99 5711.05c-2.58,2.17 -5.35,3.2 -8.28,3.06 -2.91,-0.09 -5.54,-1.55 -7.81,-4.28l-76.52 -91.2c-2.31,-2.73 -3.25,-5.55 -2.87,-8.47 0.37,-2.87 1.88,-5.41 4.47,-7.62 2.58,-2.16 5.31,-3.16 8.18,-2.96 2.82,0.19 5.41,1.64 7.71,4.37l76.53 91.21c2.4,2.87 3.44,5.69 3.06,8.46 -0.37,2.78 -1.88,5.27 -4.47,7.43zm-110.05 -131.17c-3.44,2.92 -7.1,4.23 -10.97,4.04 -3.85,-0.19 -7.14,-1.98 -9.91,-5.27 -2.69,-3.2 -3.77,-6.68 -3.3,-10.48 0.47,-3.87 2.4,-7.2 5.88,-10.12 3.44,-2.92 7.1,-4.23 10.96,-4.05 3.86,0.2 7.1,1.89 9.79,5.04 2.77,3.34 3.9,6.92 3.42,10.73 -0.47,3.85 -2.39,7.19 -5.87,10.11z"/>
    <path id="5" class="fil3" d="M12834.1 5640.37c-9.78,8.23 -20.36,13.26 -31.66,15.14 -11.28,1.89 -22.48,0.47 -33.44,-4.33 -11,-4.74 -21.07,-12.55 -30.1,-23.33 -9.07,-10.81 -15.01,-22.19 -17.78,-34.1 -2.73,-11.95 -2.26,-23.37 1.55,-34.43 3.77,-11.01 10.59,-20.69 20.56,-29.02 5.45,-4.61 11.52,-8.42 18.2,-11.43 6.68,-3.01 13.22,-4.79 19.71,-5.26 4.04,-0.47 7.29,-0.34 9.73,0.42 2.5,0.75 4.56,2.16 6.26,4.18 1.7,2.03 2.55,4.09 2.54,6.3 0.04,2.21 -0.85,4.04 -2.54,5.51 -1.03,0.84 -2.35,1.46 -4,1.83 -1.64,0.42 -3.1,0.66 -4.37,0.75 -1.28,0.05 -2.12,0.15 -2.54,0.24 -5.79,0.71 -10.96,1.74 -15.57,3.15 -4.61,1.41 -9.36,4.19 -14.25,8.28 -10.49,8.84 -15.71,19.24 -15.53,31.28 0.15,12.04 5.51,24.36 16.19,37.07 10.62,12.65 21.77,20.03 33.39,22.06 11.62,2.02 22.71,-1.42 33.25,-10.26 4.9,-4.09 8.48,-8.32 10.82,-12.75 2.31,-4.42 4.24,-9.36 5.79,-14.81 0.76,-2.36 1.5,-4.47 2.35,-6.4 0.85,-1.93 1.79,-3.29 2.78,-4.14 1.6,-1.36 3.48,-1.83 5.64,-1.41 2.16,0.38 4.1,1.55 5.79,3.58 1.55,1.88 2.49,3.99 2.73,6.35 0.27,2.35 -0.19,5.64 -1.32,9.83 -1.74,6.11 -4.8,12.36 -9.08,18.81 -4.28,6.44 -9.31,12.04 -15.1,16.89z"/>
    <path id="6" class="fil3" d="M12965.4 5504.05c4.14,0.23 7.19,1.55 9.26,4.04 1.79,2.12 2.63,4.66 2.44,7.48 -0.18,2.87 -1.35,5.23 -3.52,7 -1.88,1.61 -4.51,2.36 -7.99,2.31l-97.23 -1.27 35.75 42.57c2.3,2.73 3.25,5.55 2.87,8.47 -0.42,2.87 -1.84,5.37 -4.28,7.43 -2.59,2.17 -5.36,3.2 -8.29,3.06 -2.9,-0.09 -5.54,-1.55 -7.8,-4.28l-115.14 -137.2c-2.3,-2.77 -3.24,-5.54 -2.87,-8.46 0.38,-2.92 1.88,-5.46 4.48,-7.63 2.44,-2.06 5.12,-3 8.04,-2.91 2.91,0.15 5.55,1.55 7.85,4.28l73.62 87.77 11.94 -90.68c0.28,-3.16 1.51,-5.7 3.67,-7.48 2.16,-1.84 4.66,-2.59 7.58,-2.36 2.91,0.28 5.31,1.47 7.1,3.62 2.07,2.46 2.87,5.46 2.44,9.03l-10.67 73.76 80.76 1.46z"/>
    <path id="7" class="fil3" d="M13129.88 5137.36c-0.98,-2.36 -1.13,-4.62 -0.48,-6.78 0.67,-2.11 1.84,-3.91 3.58,-5.37 2.31,-1.92 4.85,-2.91 7.67,-2.96 2.78,0.01 5.18,1.13 7.1,3.44 0.85,1.04 1.6,2.35 2.26,4l66.66 178.63c0.98,2.64 1.02,5.23 0.23,7.76 -0.84,2.5 -2.3,4.66 -4.47,6.49 -2.02,1.7 -4.37,2.73 -7,3.11 -2.64,0.37 -5.14,-0.14 -7.58,-1.56l-142.8 -84.19 57.67 155.59c0.99,2.63 1.04,5.22 0.24,7.76 -0.85,2.54 -2.26,4.61 -4.29,6.3 -1.97,1.69 -4.32,2.73 -6.96,3.11 -2.63,0.37 -5.17,-0.15 -7.57,-1.56l-164.56 -96.47c-1.38,-0.79 -2.5,-1.69 -3.35,-2.73 -1.93,-2.29 -2.63,-4.94 -2.02,-7.85 0.61,-2.96 2.02,-5.41 4.32,-7.34 1.75,-1.45 3.77,-2.35 6.07,-2.68 2.31,-0.33 4.52,0.19 6.68,1.6l145.52 87.01 -58.64 -157.7c-1.14,-2.78 -1.33,-5.36 -0.67,-7.76 0.71,-2.44 1.98,-4.42 3.85,-5.97 1.88,-1.6 4.1,-2.44 6.64,-2.63 2.54,-0.2 5.08,0.51 7.62,2.06l144.67 85.94 -60.39 -159.25z"/>
    <path id="8" class="fil3" d="M13343.7 5168.56c1.6,-1.31 3.48,-1.83 5.74,-1.5 2.26,0.33 4.19,1.5 5.88,3.53 3.06,3.62 3.3,9.02 0.8,16.31 -2.63,7.34 -6.21,14.22 -10.72,20.57 -4.47,6.34 -9.46,11.8 -14.96,16.41 -16.27,13.68 -33.16,19.61 -50.71,17.92 -17.54,-1.74 -33.43,-11.15 -47.69,-28.13 -9.08,-10.81 -15,-22.1 -17.78,-33.91 -2.77,-11.76 -2.31,-23.14 1.4,-34.1 3.68,-10.96 10.35,-20.46 20,-28.6 13.68,-11.48 28.32,-16.13 43.89,-13.98 15.56,2.17 29.77,10.88 42.57,26.16 2.39,2.87 3.57,5.46 3.52,7.72 -0.05,2.26 -1.41,4.51 -4,6.67l-69.57 58.38c22.11,23.7 44.22,26.24 66.42,7.62 5.6,-4.7 9.78,-9.5 12.56,-14.44 2.77,-4.89 5.36,-10.54 7.81,-17.03 1.92,-5.32 3.53,-8.52 4.84,-9.6zm-96.37 -38.05c-9.22,7.71 -14.21,16.79 -14.91,27.24 -0.71,10.39 2.86,21.3 10.68,32.64l61.14 -51.32c-9.22,-10.4 -18.77,-16.32 -28.59,-17.78 -9.79,-1.46 -19.25,1.6 -28.32,9.22z"/>
    <path id="9" class="fil3" d="M13359.14 5013.52c25.21,-21.16 49.48,-17.83 72.82,9.97l49.1 58.56c2.3,2.73 3.34,5.5 3.11,8.28 -0.24,2.77 -1.74,5.31 -4.48,7.62 -2.72,2.31 -5.54,3.33 -8.41,3.15 -2.82,-0.19 -5.41,-1.64 -7.71,-4.37l-48.22 -57.48c-8.23,-9.79 -16.13,-15.33 -23.7,-16.61 -7.58,-1.22 -15.53,1.65 -23.85,8.66 -9.69,8.09 -14.91,17.49 -15.72,28.26 -0.79,10.74 3.02,21.13 11.49,31.24l44.26 52.73c2.3,2.72 3.28,5.5 3.06,8.28 -0.24,2.77 -1.75,5.31 -4.48,7.61 -2.72,2.3 -5.5,3.34 -8.37,3.15 -2.87,-0.18 -5.45,-1.64 -7.72,-4.37l-76.52 -91.2c-2.17,-2.59 -3.15,-5.32 -2.86,-8.23 0.22,-2.92 1.73,-5.56 4.46,-7.86 2.59,-2.16 5.32,-3.11 8.14,-2.77 2.86,0.32 5.31,1.69 7.33,4.13l9.27 11.01c-1.98,-9.36 -1.27,-18.35 2.07,-26.91 3.34,-8.6 8.99,-16.22 16.93,-22.85z"/>
    <path id="10" class="fil3" d="M13475.2 4838.43c2.73,-2.3 5.55,-3.34 8.47,-3.11 2.92,0.28 5.41,1.65 7.48,4.1l115.28 137.43c2.21,2.58 3.15,5.31 2.91,8.23 -0.28,2.92 -1.78,5.55 -4.51,7.85 -2.73,2.27 -5.51,3.25 -8.37,2.96 -2.83,-0.33 -5.33,-1.78 -7.54,-4.37l-9.77 -11.66c2.4,9.26 2.02,18.29 -1.04,27.04 -3.1,8.7 -8.79,16.56 -16.98,23.42 -9.22,7.77 -19.28,12.29 -30.25,13.6 -10.91,1.32 -21.82,-0.56 -32.64,-5.55 -10.86,-5.03 -20.84,-13.03 -30.06,-23.99 -9.03,-10.77 -15.1,-21.92 -18.1,-33.39 -2.97,-11.48 -2.82,-22.44 0.46,-32.83 3.34,-10.35 9.6,-19.43 18.82,-27.19 8.23,-6.87 16.89,-11.1 26.06,-12.61 9.12,-1.55 18.06,-0.32 26.81,3.62l-48.63 -57.9c-2.17,-2.58 -3.11,-5.27 -2.87,-8.09 0.22,-2.77 1.74,-5.31 4.46,-7.57zm77.24 174.54c10.21,-8.61 15.19,-18.73 14.86,-30.34 -0.32,-11.66 -5.83,-23.89 -16.6,-36.74 -10.78,-12.79 -21.83,-20.32 -33.16,-22.62 -11.34,-2.25 -22.16,0.94 -32.36,9.5 -10.26,8.61 -15.29,18.72 -15.19,30.44 0.08,11.66 5.4,23.8 15.93,36.31 10.78,12.84 21.97,20.41 33.64,22.77 11.71,2.35 22.63,-0.76 32.88,-9.32z"/>
    <path id="11" class="fil3" d="M13706.24 4864.36c1.6,-1.31 3.47,-1.83 5.74,-1.5 2.25,0.33 4.18,1.51 5.88,3.53 3.05,3.62 3.29,9.02 0.79,16.32 -2.63,7.33 -6.2,14.21 -10.72,20.56 -4.47,6.34 -9.46,11.8 -14.96,16.41 -16.27,13.68 -33.16,19.62 -50.7,17.92 -17.55,-1.74 -33.44,-11.15 -47.7,-28.12 -9.08,-10.82 -15,-22.11 -17.78,-33.92 -2.77,-11.76 -2.31,-23.14 1.41,-34.1 3.68,-10.96 10.35,-20.46 20,-28.6 13.68,-11.48 28.31,-16.13 43.88,-13.97 15.57,2.17 29.77,10.87 42.57,26.15 2.4,2.87 3.58,5.46 3.53,7.72 -0.05,2.26 -1.41,4.51 -4.01,6.68l-69.56 58.37c22.11,23.7 44.21,26.25 66.41,7.62 5.6,-4.7 9.79,-9.5 12.56,-14.44 2.78,-4.89 5.37,-10.53 7.81,-17.03 1.93,-5.32 3.53,-8.52 4.85,-9.6zm-96.38 -38.05c-9.22,7.71 -14.21,16.79 -14.91,27.24 -0.7,10.39 2.86,21.3 10.68,32.64l61.15 -51.32c-9.22,-10.4 -18.78,-16.32 -28.6,-17.78 -9.79,-1.46 -19.24,1.6 -28.32,9.22z"/>
    <path id="12" class="fil3" d="M13768.95 4855.21c-2.58,2.17 -5.36,3.21 -8.28,3.06 -2.91,-0.09 -5.55,-1.55 -7.81,-4.28l-115.14 -137.2c-2.3,-2.77 -3.24,-5.54 -2.87,-8.46 0.38,-2.92 1.88,-5.46 4.48,-7.62 2.44,-2.07 5.12,-3.01 8.04,-2.91 2.91,0.14 5.55,1.54 7.85,4.27l115.14 137.25c2.3,2.73 3.25,5.55 2.87,8.46 -0.42,2.87 -1.84,5.37 -4.28,7.43z"/>
    <path id="13" class="fil4 str1" d="M12208.18 5979.28c9.23,-7.76 19.2,-12.32 30.02,-13.77 10.82,-1.47 21.59,0.27 32.41,5.22 10.77,4.93 20.69,12.84 29.72,23.6 9.22,10.97 15.34,22.21 18.4,33.78 3.05,11.52 3.01,22.58 -0.19,33.11 -3.2,10.54 -9.41,19.67 -18.63,27.38 -8.18,6.91 -16.88,11.15 -26.02,12.65 -9.16,1.55 -18.1,0.33 -26.8,-3.62l9.78 11.66c2.16,2.59 3.16,5.32 2.96,8.18 -0.13,2.83 -1.64,5.42 -4.37,7.72 -2.73,2.3 -5.55,3.3 -8.47,3.06 -2.91,-0.29 -5.45,-1.69 -7.62,-4.28l-115.32 -137.44c-2.07,-2.44 -2.97,-5.12 -2.73,-8.04 0.29,-2.91 1.78,-5.5 4.52,-7.81 2.73,-2.3 5.5,-3.33 8.27,-3.1 2.78,0.28 5.28,1.7 7.43,4.29l48.6 57.89c-2.4,-9.26 -2.03,-18.29 1.08,-27.04 3.1,-8.75 8.74,-16.56 16.97,-23.43zm76.12 97.75c10.24,-8.56 15.19,-18.77 14.81,-30.62 -0.38,-11.86 -5.92,-24.18 -16.7,-37.02 -10.49,-12.51 -21.49,-19.9 -32.87,-22.11 -11.44,-2.16 -22.26,0.99 -32.51,9.59 -10.21,8.57 -15.19,18.68 -14.96,30.25 0.28,11.57 5.79,23.75 16.52,36.55 10.76,12.84 21.86,20.41 33.25,22.76 11.43,2.31 22.25,-0.8 32.46,-9.4z"/>
    <path id="14" class="fil4 str1" d="M12360.51 5861.38c-1.32,-4.79 -0.29,-8.6 3.19,-11.52 2.17,-1.83 4.71,-2.72 7.62,-2.72 2.96,-0.01 5.32,1.08 7.16,3.19 1.08,1.32 1.78,2.73 2.01,4.19l49.16 181.93c0.61,2.16 0.61,4.27 -0.05,6.3 -0.62,2.02 -1.65,3.62 -3.11,4.84 -2.16,1.79 -4.65,2.73 -7.43,2.74 -2.82,0.04 -5.12,-1.04 -6.96,-3.21 -0.94,-1.17 -1.64,-2.53 -2.01,-4.18l-12.28 -45.34 -120.36 -56.59c-1.41,-0.52 -2.63,-1.37 -3.58,-2.5 -1.83,-2.16 -2.44,-4.84 -1.83,-8.08 0.61,-3.2 2.07,-5.79 4.38,-7.72 1.45,-1.22 3.24,-1.97 5.31,-2.25 2.11,-0.29 4.18,0.09 6.21,1.08l104.08 50.75 -31.5 -110.91z"/>
    <path id="15" class="fil4 str1" d="M12548.79 5877.22c-2.72,2.26 -5.59,3.34 -8.61,3.15 -2.96,-0.18 -5.54,-1.59 -7.7,-4.18l-113.35 -135.08c-2.17,-2.59 -3.11,-5.37 -2.78,-8.33 0.32,-3.01 1.88,-5.64 4.61,-7.9l80.81 -67.83c2.59,-2.15 5.17,-3.24 7.66,-3.15 2.54,0.1 4.81,1.32 6.73,3.62 1.93,2.31 2.73,4.71 2.36,7.2 -0.34,2.49 -1.84,4.85 -4.43,7l-72.39 60.78 44.45 52.91 68.06 -57.1c2.59,-2.15 5.13,-3.19 7.67,-3.15 2.54,0.1 4.75,1.32 6.72,3.63 1.94,2.3 2.69,4.7 2.36,7.19 -0.38,2.49 -1.83,4.85 -4.42,7.01l-68.07 57.15 46.43 55.32 72.39 -60.78c2.59,-2.16 5.13,-3.24 7.57,-3.2 2.5,0 4.75,1.22 6.78,3.67 1.97,2.3 2.72,4.7 2.4,7.25 -0.38,2.49 -1.84,4.84 -4.42,7.01l-80.82 67.82z"/>
    <path id="16" class="fil4 str1" d="M12624.9 5630.31c5.69,-5.5 10.77,-5.6 15.24,-0.24 1.93,2.31 2.82,4.66 2.68,7.15 -0.13,2.45 -1.7,5.13 -4.61,8.1l-5.97 6.06c-8.9,8.99 -13.22,18.44 -12.9,28.32 0.39,9.93 3.91,18.91 10.69,26.95l44.07 52.54c2.4,2.87 3.43,5.69 3.06,8.47 -0.37,2.77 -1.88,5.27 -4.47,7.43 -2.58,2.16 -5.36,3.2 -8.28,3.06 -2.91,-0.1 -5.55,-1.55 -7.81,-4.29l-76.53 -91.19c-2.3,-2.73 -3.25,-5.61 -2.77,-8.57 0.47,-2.96 1.92,-5.46 4.37,-7.53 2.31,-1.92 4.9,-2.77 7.72,-2.58 2.87,0.14 5.41,1.54 7.57,4.14l10.16 12.09c-2.31,-8.85 -2.08,-17.27 0.7,-25.26 2.79,-7.95 7.53,-15.24 14.21,-21.87l2.87 -2.78z"/>
    <path id="17" class="fil4 str1" d="M12748.99 5711.05c-2.58,2.17 -5.35,3.2 -8.28,3.06 -2.91,-0.09 -5.54,-1.55 -7.81,-4.28l-76.52 -91.2c-2.31,-2.73 -3.25,-5.55 -2.87,-8.47 0.37,-2.87 1.88,-5.41 4.47,-7.62 2.58,-2.16 5.31,-3.16 8.18,-2.96 2.82,0.19 5.41,1.64 7.71,4.37l76.53 91.21c2.4,2.87 3.44,5.69 3.06,8.46 -0.37,2.78 -1.88,5.27 -4.47,7.43zm-110.05 -131.17c-3.44,2.92 -7.1,4.23 -10.97,4.04 -3.85,-0.19 -7.14,-1.98 -9.91,-5.27 -2.69,-3.2 -3.77,-6.68 -3.3,-10.48 0.47,-3.87 2.4,-7.2 5.88,-10.12 3.44,-2.92 7.1,-4.23 10.96,-4.05 3.86,0.2 7.1,1.89 9.79,5.04 2.77,3.34 3.9,6.92 3.42,10.73 -0.47,3.85 -2.39,7.19 -5.87,10.11z"/>
    <path id="18" class="fil4 str1" d="M12834.1 5640.37c-9.78,8.23 -20.36,13.26 -31.66,15.14 -11.28,1.89 -22.48,0.47 -33.44,-4.33 -11,-4.74 -21.07,-12.55 -30.1,-23.33 -9.07,-10.81 -15.01,-22.19 -17.78,-34.1 -2.73,-11.95 -2.26,-23.37 1.55,-34.43 3.77,-11.01 10.59,-20.69 20.56,-29.02 5.45,-4.61 11.52,-8.42 18.2,-11.43 6.68,-3.01 13.22,-4.79 19.71,-5.26 4.04,-0.47 7.29,-0.34 9.73,0.42 2.5,0.75 4.56,2.16 6.26,4.18 1.7,2.03 2.55,4.09 2.54,6.3 0.04,2.21 -0.85,4.04 -2.54,5.51 -1.03,0.84 -2.35,1.46 -4,1.83 -1.64,0.42 -3.1,0.66 -4.37,0.75 -1.28,0.05 -2.12,0.15 -2.54,0.24 -5.79,0.71 -10.96,1.74 -15.57,3.15 -4.61,1.41 -9.36,4.19 -14.25,8.28 -10.49,8.84 -15.71,19.24 -15.53,31.28 0.15,12.04 5.51,24.36 16.19,37.07 10.62,12.65 21.77,20.03 33.39,22.06 11.62,2.02 22.71,-1.42 33.25,-10.26 4.9,-4.09 8.48,-8.32 10.82,-12.75 2.31,-4.42 4.24,-9.36 5.79,-14.81 0.76,-2.36 1.5,-4.47 2.35,-6.4 0.85,-1.93 1.79,-3.29 2.78,-4.14 1.6,-1.36 3.48,-1.83 5.64,-1.41 2.16,0.38 4.1,1.55 5.79,3.58 1.55,1.88 2.49,3.99 2.73,6.35 0.27,2.35 -0.19,5.64 -1.32,9.83 -1.74,6.11 -4.8,12.36 -9.08,18.81 -4.28,6.44 -9.31,12.04 -15.1,16.89z"/>
    <path id="19" class="fil4 str1" d="M12965.4 5504.05c4.14,0.23 7.19,1.55 9.26,4.04 1.79,2.12 2.63,4.66 2.44,7.48 -0.18,2.87 -1.35,5.23 -3.52,7 -1.88,1.61 -4.51,2.36 -7.99,2.31l-97.23 -1.27 35.75 42.57c2.3,2.73 3.25,5.55 2.87,8.47 -0.42,2.87 -1.84,5.37 -4.28,7.43 -2.59,2.17 -5.36,3.2 -8.29,3.06 -2.9,-0.09 -5.54,-1.55 -7.8,-4.28l-115.14 -137.2c-2.3,-2.77 -3.24,-5.54 -2.87,-8.46 0.38,-2.92 1.88,-5.46 4.48,-7.63 2.44,-2.06 5.12,-3 8.04,-2.91 2.91,0.15 5.55,1.55 7.85,4.28l73.62 87.77 11.94 -90.68c0.28,-3.16 1.51,-5.7 3.67,-7.48 2.16,-1.84 4.66,-2.59 7.58,-2.36 2.91,0.28 5.31,1.47 7.1,3.62 2.07,2.46 2.87,5.46 2.44,9.03l-10.67 73.76 80.76 1.46z"/>
    <path id="20" class="fil4 str1" d="M13129.88 5137.36c-0.98,-2.36 -1.13,-4.62 -0.48,-6.78 0.67,-2.11 1.84,-3.91 3.58,-5.37 2.31,-1.92 4.85,-2.91 7.67,-2.96 2.78,0.01 5.18,1.13 7.1,3.44 0.85,1.04 1.6,2.35 2.26,4l66.66 178.63c0.98,2.64 1.02,5.23 0.23,7.76 -0.84,2.5 -2.3,4.66 -4.47,6.49 -2.02,1.7 -4.37,2.73 -7,3.11 -2.64,0.37 -5.14,-0.14 -7.58,-1.56l-142.8 -84.19 57.67 155.59c0.99,2.63 1.04,5.22 0.24,7.76 -0.85,2.54 -2.26,4.61 -4.29,6.3 -1.97,1.69 -4.32,2.73 -6.96,3.11 -2.63,0.37 -5.17,-0.15 -7.57,-1.56l-164.56 -96.47c-1.38,-0.79 -2.5,-1.69 -3.35,-2.73 -1.93,-2.29 -2.63,-4.94 -2.02,-7.85 0.61,-2.96 2.02,-5.41 4.32,-7.34 1.75,-1.45 3.77,-2.35 6.07,-2.68 2.31,-0.33 4.52,0.19 6.68,1.6l145.52 87.01 -58.64 -157.7c-1.14,-2.78 -1.33,-5.36 -0.67,-7.76 0.71,-2.44 1.98,-4.42 3.85,-5.97 1.88,-1.6 4.1,-2.44 6.64,-2.63 2.54,-0.2 5.08,0.51 7.62,2.06l144.67 85.94 -60.39 -159.25z"/>
    <path id="21" class="fil4 str1" d="M13343.7 5168.56c1.6,-1.31 3.48,-1.83 5.74,-1.5 2.26,0.33 4.19,1.5 5.88,3.53 3.06,3.62 3.3,9.02 0.8,16.31 -2.63,7.34 -6.21,14.22 -10.72,20.57 -4.47,6.34 -9.46,11.8 -14.96,16.41 -16.27,13.68 -33.16,19.61 -50.71,17.92 -17.54,-1.74 -33.43,-11.15 -47.69,-28.13 -9.08,-10.81 -15,-22.1 -17.78,-33.91 -2.77,-11.76 -2.31,-23.14 1.4,-34.1 3.68,-10.96 10.35,-20.46 20,-28.6 13.68,-11.48 28.32,-16.13 43.89,-13.98 15.56,2.17 29.77,10.88 42.57,26.16 2.39,2.87 3.57,5.46 3.52,7.72 -0.05,2.26 -1.41,4.51 -4,6.67l-69.57 58.38c22.11,23.7 44.22,26.24 66.42,7.62 5.6,-4.7 9.78,-9.5 12.56,-14.44 2.77,-4.89 5.36,-10.54 7.81,-17.03 1.92,-5.32 3.53,-8.52 4.84,-9.6zm-96.37 -38.05c-9.22,7.71 -14.21,16.79 -14.91,27.24 -0.71,10.39 2.86,21.3 10.68,32.64l61.14 -51.32c-9.22,-10.4 -18.77,-16.32 -28.59,-17.78 -9.79,-1.46 -19.25,1.6 -28.32,9.22z"/>
    <path id="22" class="fil4 str1" d="M13359.14 5013.52c25.21,-21.16 49.48,-17.83 72.82,9.97l49.1 58.56c2.3,2.73 3.34,5.5 3.11,8.28 -0.24,2.77 -1.74,5.31 -4.48,7.62 -2.72,2.31 -5.54,3.33 -8.41,3.15 -2.82,-0.19 -5.41,-1.64 -7.71,-4.37l-48.22 -57.48c-8.23,-9.79 -16.13,-15.33 -23.7,-16.61 -7.58,-1.22 -15.53,1.65 -23.85,8.66 -9.69,8.09 -14.91,17.49 -15.72,28.26 -0.79,10.74 3.02,21.13 11.49,31.24l44.26 52.73c2.3,2.72 3.28,5.5 3.06,8.28 -0.24,2.77 -1.75,5.31 -4.48,7.61 -2.72,2.3 -5.5,3.34 -8.37,3.15 -2.87,-0.18 -5.45,-1.64 -7.72,-4.37l-76.52 -91.2c-2.17,-2.59 -3.15,-5.32 -2.86,-8.23 0.22,-2.92 1.73,-5.56 4.46,-7.86 2.59,-2.16 5.32,-3.11 8.14,-2.77 2.86,0.32 5.31,1.69 7.33,4.13l9.27 11.01c-1.98,-9.36 -1.27,-18.35 2.07,-26.91 3.34,-8.6 8.99,-16.22 16.93,-22.85z"/>
    <path id="23" class="fil4 str1" d="M13475.2 4838.43c2.73,-2.3 5.55,-3.34 8.47,-3.11 2.92,0.28 5.41,1.65 7.48,4.1l115.28 137.43c2.21,2.58 3.15,5.31 2.91,8.23 -0.28,2.92 -1.78,5.55 -4.51,7.85 -2.73,2.27 -5.51,3.25 -8.37,2.96 -2.83,-0.33 -5.33,-1.78 -7.54,-4.37l-9.77 -11.66c2.4,9.26 2.02,18.29 -1.04,27.04 -3.1,8.7 -8.79,16.56 -16.98,23.42 -9.22,7.77 -19.28,12.29 -30.25,13.6 -10.91,1.32 -21.82,-0.56 -32.64,-5.55 -10.86,-5.03 -20.84,-13.03 -30.06,-23.99 -9.03,-10.77 -15.1,-21.92 -18.1,-33.39 -2.97,-11.48 -2.82,-22.44 0.46,-32.83 3.34,-10.35 9.6,-19.43 18.82,-27.19 8.23,-6.87 16.89,-11.1 26.06,-12.61 9.12,-1.55 18.06,-0.32 26.81,3.62l-48.63 -57.9c-2.17,-2.58 -3.11,-5.27 -2.87,-8.09 0.22,-2.77 1.74,-5.31 4.46,-7.57zm77.24 174.54c10.21,-8.61 15.19,-18.73 14.86,-30.34 -0.32,-11.66 -5.83,-23.89 -16.6,-36.74 -10.78,-12.79 -21.83,-20.32 -33.16,-22.62 -11.34,-2.25 -22.16,0.94 -32.36,9.5 -10.26,8.61 -15.29,18.72 -15.19,30.44 0.08,11.66 5.4,23.8 15.93,36.31 10.78,12.84 21.97,20.41 33.64,22.77 11.71,2.35 22.63,-0.76 32.88,-9.32z"/>
    <path id="24" class="fil4 str1" d="M13706.24 4864.36c1.6,-1.31 3.47,-1.83 5.74,-1.5 2.25,0.33 4.18,1.51 5.88,3.53 3.05,3.62 3.29,9.02 0.79,16.32 -2.63,7.33 -6.2,14.21 -10.72,20.56 -4.47,6.34 -9.46,11.8 -14.96,16.41 -16.27,13.68 -33.16,19.62 -50.7,17.92 -17.55,-1.74 -33.44,-11.15 -47.7,-28.12 -9.08,-10.82 -15,-22.11 -17.78,-33.92 -2.77,-11.76 -2.31,-23.14 1.41,-34.1 3.68,-10.96 10.35,-20.46 20,-28.6 13.68,-11.48 28.31,-16.13 43.88,-13.97 15.57,2.17 29.77,10.87 42.57,26.15 2.4,2.87 3.58,5.46 3.53,7.72 -0.05,2.26 -1.41,4.51 -4.01,6.68l-69.56 58.37c22.11,23.7 44.21,26.25 66.41,7.62 5.6,-4.7 9.79,-9.5 12.56,-14.44 2.78,-4.89 5.37,-10.53 7.81,-17.03 1.93,-5.32 3.53,-8.52 4.85,-9.6zm-96.38 -38.05c-9.22,7.71 -14.21,16.79 -14.91,27.24 -0.7,10.39 2.86,21.3 10.68,32.64l61.15 -51.32c-9.22,-10.4 -18.78,-16.32 -28.6,-17.78 -9.79,-1.46 -19.24,1.6 -28.32,9.22z"/>
    <path id="25" class="fil4 str1" d="M13768.95 4855.21c-2.58,2.17 -5.36,3.21 -8.28,3.06 -2.91,-0.09 -5.55,-1.55 -7.81,-4.28l-115.14 -137.2c-2.3,-2.77 -3.24,-5.54 -2.87,-8.46 0.38,-2.92 1.88,-5.46 4.48,-7.62 2.44,-2.07 5.12,-3.01 8.04,-2.91 2.91,0.14 5.55,1.54 7.85,4.27l115.14 137.25c2.3,2.73 3.25,5.55 2.87,8.46 -0.42,2.87 -1.84,5.37 -4.28,7.43z"/>
    <path class="fil5" d="M12186.43 5977.53c9.23,-7.76 19.2,-12.32 30.02,-13.77 10.82,-1.47 21.59,0.27 32.41,5.22 10.77,4.93 20.69,12.84 29.72,23.6 9.22,10.97 15.34,22.21 18.4,33.78 3.05,11.52 3.01,22.58 -0.19,33.11 -3.2,10.54 -9.41,19.67 -18.63,27.38 -8.18,6.91 -16.88,11.15 -26.02,12.65 -9.16,1.55 -18.1,0.33 -26.8,-3.62l9.78 11.66c2.16,2.59 3.16,5.32 2.96,8.18 -0.13,2.83 -1.64,5.42 -4.37,7.72 -2.73,2.3 -5.55,3.3 -8.47,3.06 -2.91,-0.29 -5.45,-1.69 -7.62,-4.28l-115.32 -137.44c-2.07,-2.44 -2.97,-5.12 -2.73,-8.04 0.29,-2.91 1.78,-5.5 4.52,-7.81 2.73,-2.3 5.5,-3.33 8.27,-3.1 2.78,0.28 5.28,1.7 7.43,4.29l48.6 57.89c-2.4,-9.26 -2.03,-18.29 1.08,-27.04 3.1,-8.75 8.74,-16.56 16.97,-23.43zm76.12 97.75c10.24,-8.56 15.19,-18.77 14.81,-30.62 -0.38,-11.86 -5.92,-24.18 -16.7,-37.02 -10.49,-12.51 -21.49,-19.9 -32.87,-22.11 -11.44,-2.16 -22.26,0.99 -32.51,9.59 -10.21,8.57 -15.19,18.68 -14.96,30.25 0.28,11.57 5.79,23.75 16.52,36.55 10.76,12.84 21.86,20.41 33.25,22.76 11.43,2.31 22.25,-0.8 32.46,-9.4z"/>
    <path id="1" class="fil5" d="M12338.76 5859.63c-1.32,-4.79 -0.29,-8.6 3.19,-11.52 2.17,-1.83 4.71,-2.72 7.62,-2.72 2.96,-0.01 5.32,1.08 7.16,3.19 1.08,1.32 1.78,2.73 2.01,4.19l49.16 181.93c0.61,2.16 0.61,4.27 -0.05,6.3 -0.62,2.02 -1.65,3.62 -3.11,4.84 -2.16,1.79 -4.65,2.73 -7.43,2.74 -2.82,0.04 -5.12,-1.04 -6.96,-3.21 -0.94,-1.17 -1.64,-2.53 -2.01,-4.18l-12.28 -45.34 -120.36 -56.59c-1.41,-0.52 -2.63,-1.37 -3.58,-2.5 -1.83,-2.16 -2.44,-4.84 -1.83,-8.08 0.61,-3.2 2.07,-5.79 4.38,-7.72 1.45,-1.22 3.24,-1.97 5.31,-2.25 2.11,-0.29 4.18,0.09 6.21,1.08l104.08 50.75 -31.5 -110.91z"/>
    <path id="2" class="fil5" d="M12527.04 5875.47c-2.72,2.26 -5.59,3.34 -8.61,3.15 -2.96,-0.18 -5.54,-1.59 -7.7,-4.18l-113.35 -135.08c-2.17,-2.59 -3.11,-5.37 -2.78,-8.33 0.32,-3.01 1.88,-5.64 4.61,-7.9l80.81 -67.83c2.59,-2.15 5.17,-3.24 7.66,-3.15 2.54,0.1 4.81,1.32 6.73,3.62 1.93,2.31 2.73,4.71 2.36,7.2 -0.34,2.49 -1.84,4.85 -4.43,7l-72.39 60.78 44.45 52.91 68.06 -57.1c2.59,-2.15 5.13,-3.19 7.67,-3.15 2.54,0.1 4.75,1.32 6.72,3.63 1.94,2.3 2.69,4.7 2.36,7.19 -0.38,2.49 -1.83,4.85 -4.42,7.01l-68.07 57.15 46.43 55.32 72.39 -60.78c2.59,-2.16 5.13,-3.24 7.57,-3.2 2.5,0 4.75,1.22 6.78,3.67 1.97,2.3 2.72,4.7 2.4,7.25 -0.38,2.49 -1.84,4.84 -4.42,7.01l-80.82 67.82z"/>
    <path id="3" class="fil5" d="M12603.15 5628.56c5.69,-5.5 10.77,-5.6 15.24,-0.24 1.93,2.31 2.82,4.66 2.68,7.15 -0.13,2.45 -1.7,5.13 -4.61,8.1l-5.97 6.06c-8.9,8.99 -13.22,18.44 -12.9,28.32 0.39,9.93 3.91,18.91 10.69,26.95l44.07 52.54c2.4,2.87 3.43,5.69 3.06,8.47 -0.37,2.77 -1.88,5.27 -4.47,7.43 -2.58,2.16 -5.36,3.2 -8.28,3.06 -2.91,-0.1 -5.55,-1.55 -7.81,-4.29l-76.53 -91.19c-2.3,-2.73 -3.25,-5.61 -2.77,-8.57 0.47,-2.96 1.92,-5.46 4.37,-7.53 2.31,-1.92 4.9,-2.77 7.72,-2.58 2.87,0.14 5.41,1.54 7.57,4.14l10.16 12.09c-2.31,-8.85 -2.08,-17.27 0.7,-25.26 2.79,-7.95 7.53,-15.24 14.21,-21.87l2.87 -2.78z"/>
    <path id="4" class="fil5" d="M12727.25 5709.3c-2.58,2.17 -5.35,3.2 -8.28,3.06 -2.91,-0.09 -5.54,-1.55 -7.81,-4.28l-76.52 -91.2c-2.31,-2.73 -3.25,-5.55 -2.87,-8.47 0.37,-2.87 1.88,-5.41 4.47,-7.62 2.58,-2.16 5.31,-3.16 8.18,-2.96 2.82,0.19 5.41,1.64 7.71,4.37l76.53 91.21c2.4,2.87 3.44,5.69 3.06,8.46 -0.37,2.78 -1.88,5.27 -4.47,7.43zm-110.05 -131.17c-3.44,2.92 -7.1,4.23 -10.97,4.04 -3.85,-0.19 -7.14,-1.98 -9.91,-5.27 -2.69,-3.2 -3.77,-6.68 -3.3,-10.48 0.47,-3.87 2.4,-7.2 5.88,-10.12 3.44,-2.92 7.1,-4.23 10.96,-4.05 3.86,0.2 7.1,1.89 9.79,5.04 2.77,3.34 3.9,6.92 3.42,10.73 -0.47,3.85 -2.39,7.19 -5.87,10.11z"/>
    <path id="5" class="fil5" d="M12812.35 5638.62c-9.78,8.23 -20.36,13.26 -31.66,15.14 -11.28,1.89 -22.48,0.47 -33.44,-4.33 -11,-4.74 -21.07,-12.55 -30.1,-23.33 -9.07,-10.81 -15.01,-22.19 -17.78,-34.1 -2.73,-11.95 -2.26,-23.37 1.55,-34.43 3.77,-11.01 10.59,-20.69 20.56,-29.02 5.45,-4.61 11.52,-8.42 18.2,-11.43 6.68,-3.01 13.22,-4.79 19.71,-5.26 4.04,-0.47 7.29,-0.34 9.73,0.42 2.5,0.75 4.56,2.16 6.26,4.18 1.7,2.03 2.55,4.09 2.54,6.3 0.04,2.21 -0.85,4.04 -2.54,5.51 -1.03,0.84 -2.35,1.46 -4,1.83 -1.64,0.42 -3.1,0.66 -4.37,0.75 -1.28,0.05 -2.12,0.15 -2.54,0.24 -5.79,0.71 -10.96,1.74 -15.57,3.15 -4.61,1.41 -9.36,4.19 -14.25,8.28 -10.49,8.84 -15.71,19.24 -15.53,31.28 0.15,12.04 5.51,24.36 16.19,37.07 10.62,12.65 21.77,20.03 33.39,22.06 11.62,2.02 22.71,-1.42 33.25,-10.26 4.9,-4.09 8.48,-8.32 10.82,-12.75 2.31,-4.42 4.24,-9.36 5.79,-14.81 0.76,-2.36 1.5,-4.47 2.35,-6.4 0.85,-1.93 1.79,-3.29 2.78,-4.14 1.6,-1.36 3.48,-1.83 5.64,-1.41 2.16,0.38 4.1,1.55 5.79,3.58 1.55,1.88 2.49,3.99 2.73,6.35 0.27,2.35 -0.19,5.64 -1.32,9.83 -1.74,6.11 -4.8,12.36 -9.08,18.81 -4.28,6.44 -9.31,12.04 -15.1,16.89z"/>
    <path id="6" class="fil5" d="M12943.66 5502.3c4.14,0.23 7.19,1.55 9.26,4.04 1.79,2.12 2.63,4.66 2.44,7.48 -0.18,2.87 -1.35,5.23 -3.52,7 -1.88,1.61 -4.51,2.36 -7.99,2.31l-97.23 -1.27 35.75 42.57c2.3,2.73 3.25,5.55 2.87,8.47 -0.42,2.87 -1.84,5.37 -4.28,7.43 -2.59,2.17 -5.36,3.2 -8.29,3.06 -2.9,-0.09 -5.54,-1.55 -7.8,-4.28l-115.14 -137.2c-2.3,-2.77 -3.24,-5.54 -2.87,-8.46 0.38,-2.92 1.88,-5.46 4.48,-7.63 2.44,-2.06 5.12,-3 8.04,-2.91 2.91,0.15 5.55,1.55 7.85,4.28l73.62 87.77 11.94 -90.68c0.28,-3.16 1.51,-5.7 3.67,-7.48 2.16,-1.84 4.66,-2.59 7.58,-2.36 2.91,0.28 5.31,1.47 7.1,3.62 2.07,2.46 2.87,5.46 2.44,9.03l-10.67 73.76 80.76 1.46z"/>
    <path id="7" class="fil5" d="M13108.13 5135.61c-0.98,-2.36 -1.13,-4.62 -0.48,-6.78 0.67,-2.11 1.84,-3.91 3.58,-5.37 2.31,-1.92 4.85,-2.91 7.67,-2.96 2.78,0.01 5.18,1.13 7.1,3.44 0.85,1.04 1.6,2.35 2.26,4l66.66 178.63c0.98,2.64 1.02,5.23 0.23,7.76 -0.84,2.5 -2.3,4.66 -4.47,6.49 -2.02,1.7 -4.37,2.73 -7,3.11 -2.64,0.37 -5.14,-0.14 -7.58,-1.56l-142.8 -84.19 57.67 155.59c0.99,2.63 1.04,5.22 0.24,7.76 -0.85,2.54 -2.26,4.61 -4.29,6.3 -1.97,1.69 -4.32,2.73 -6.96,3.11 -2.63,0.37 -5.17,-0.15 -7.57,-1.56l-164.56 -96.47c-1.38,-0.79 -2.5,-1.69 -3.35,-2.73 -1.93,-2.29 -2.63,-4.94 -2.02,-7.85 0.61,-2.96 2.02,-5.41 4.32,-7.34 1.75,-1.45 3.77,-2.35 6.07,-2.68 2.31,-0.33 4.52,0.19 6.68,1.6l145.52 87.01 -58.64 -157.7c-1.14,-2.78 -1.33,-5.36 -0.67,-7.76 0.71,-2.44 1.98,-4.42 3.85,-5.97 1.88,-1.6 4.1,-2.44 6.64,-2.63 2.54,-0.2 5.08,0.51 7.62,2.06l144.67 85.94 -60.39 -159.25z"/>
    <path id="8" class="fil5" d="M13321.95 5166.81c1.6,-1.31 3.48,-1.83 5.74,-1.5 2.26,0.33 4.19,1.5 5.88,3.53 3.06,3.62 3.3,9.02 0.8,16.31 -2.63,7.34 -6.21,14.22 -10.72,20.57 -4.47,6.34 -9.46,11.8 -14.96,16.41 -16.27,13.68 -33.16,19.61 -50.71,17.92 -17.54,-1.74 -33.43,-11.15 -47.69,-28.13 -9.08,-10.81 -15,-22.1 -17.78,-33.91 -2.77,-11.76 -2.31,-23.14 1.4,-34.1 3.68,-10.96 10.35,-20.46 20,-28.6 13.68,-11.48 28.32,-16.13 43.89,-13.98 15.56,2.17 29.77,10.88 42.57,26.16 2.39,2.87 3.57,5.46 3.52,7.72 -0.05,2.26 -1.41,4.51 -4,6.67l-69.57 58.38c22.11,23.7 44.22,26.24 66.42,7.62 5.6,-4.7 9.78,-9.5 12.56,-14.44 2.77,-4.89 5.36,-10.54 7.81,-17.03 1.92,-5.32 3.53,-8.52 4.84,-9.6zm-96.37 -38.05c-9.22,7.71 -14.21,16.79 -14.91,27.24 -0.71,10.39 2.86,21.3 10.68,32.64l61.14 -51.32c-9.22,-10.4 -18.77,-16.32 -28.59,-17.78 -9.79,-1.46 -19.25,1.6 -28.32,9.22z"/>
    <path id="9" class="fil5" d="M13337.39 5011.77c25.21,-21.16 49.48,-17.83 72.82,9.97l49.1 58.56c2.3,2.73 3.34,5.5 3.11,8.28 -0.24,2.77 -1.74,5.31 -4.48,7.62 -2.72,2.31 -5.54,3.33 -8.41,3.15 -2.82,-0.19 -5.41,-1.64 -7.71,-4.37l-48.22 -57.48c-8.23,-9.79 -16.13,-15.33 -23.7,-16.61 -7.58,-1.22 -15.53,1.65 -23.85,8.66 -9.69,8.09 -14.91,17.49 -15.72,28.26 -0.79,10.74 3.02,21.13 11.49,31.24l44.26 52.73c2.3,2.72 3.28,5.5 3.06,8.28 -0.24,2.77 -1.75,5.31 -4.48,7.61 -2.72,2.3 -5.5,3.34 -8.37,3.15 -2.87,-0.18 -5.45,-1.64 -7.72,-4.37l-76.52 -91.2c-2.17,-2.59 -3.15,-5.32 -2.86,-8.23 0.22,-2.92 1.73,-5.56 4.46,-7.86 2.59,-2.16 5.32,-3.11 8.14,-2.77 2.86,0.32 5.31,1.69 7.33,4.13l9.27 11.01c-1.98,-9.36 -1.27,-18.35 2.07,-26.91 3.34,-8.6 8.99,-16.22 16.93,-22.85z"/>
    <path id="10" class="fil5" d="M13453.45 4836.68c2.73,-2.3 5.55,-3.34 8.47,-3.11 2.92,0.28 5.41,1.65 7.48,4.1l115.28 137.43c2.21,2.58 3.15,5.31 2.91,8.23 -0.28,2.92 -1.78,5.55 -4.51,7.85 -2.73,2.27 -5.51,3.25 -8.37,2.96 -2.83,-0.33 -5.33,-1.78 -7.54,-4.37l-9.77 -11.66c2.4,9.26 2.02,18.29 -1.04,27.04 -3.1,8.7 -8.79,16.56 -16.98,23.42 -9.22,7.77 -19.28,12.29 -30.25,13.6 -10.91,1.32 -21.82,-0.56 -32.64,-5.55 -10.86,-5.03 -20.84,-13.03 -30.06,-23.99 -9.03,-10.77 -15.1,-21.92 -18.1,-33.39 -2.97,-11.48 -2.82,-22.44 0.46,-32.83 3.34,-10.35 9.6,-19.43 18.82,-27.19 8.23,-6.87 16.89,-11.1 26.06,-12.61 9.12,-1.55 18.06,-0.32 26.81,3.62l-48.63 -57.9c-2.17,-2.58 -3.11,-5.27 -2.87,-8.09 0.22,-2.77 1.74,-5.31 4.46,-7.57zm77.24 174.54c10.21,-8.61 15.19,-18.73 14.86,-30.34 -0.32,-11.66 -5.83,-23.89 -16.6,-36.74 -10.78,-12.79 -21.83,-20.32 -33.16,-22.62 -11.34,-2.25 -22.16,0.94 -32.36,9.5 -10.26,8.61 -15.29,18.72 -15.19,30.44 0.08,11.66 5.4,23.8 15.93,36.31 10.78,12.84 21.97,20.41 33.64,22.77 11.71,2.35 22.63,-0.76 32.88,-9.32z"/>
    <path id="11" class="fil5" d="M13684.49 4862.61c1.6,-1.31 3.47,-1.83 5.74,-1.5 2.25,0.33 4.18,1.51 5.88,3.53 3.05,3.62 3.29,9.02 0.79,16.32 -2.63,7.33 -6.2,14.21 -10.72,20.56 -4.47,6.34 -9.46,11.8 -14.96,16.41 -16.27,13.68 -33.16,19.62 -50.7,17.92 -17.55,-1.74 -33.44,-11.15 -47.7,-28.12 -9.08,-10.82 -15,-22.11 -17.78,-33.92 -2.77,-11.76 -2.31,-23.14 1.41,-34.1 3.68,-10.96 10.35,-20.46 20,-28.6 13.68,-11.48 28.31,-16.13 43.88,-13.97 15.57,2.17 29.77,10.87 42.57,26.15 2.4,2.87 3.58,5.46 3.53,7.72 -0.05,2.26 -1.41,4.51 -4.01,6.68l-69.56 58.37c22.11,23.7 44.21,26.25 66.41,7.62 5.6,-4.7 9.79,-9.5 12.56,-14.44 2.78,-4.89 5.37,-10.53 7.81,-17.03 1.93,-5.32 3.53,-8.52 4.85,-9.6zm-96.38 -38.05c-9.22,7.71 -14.21,16.79 -14.91,27.24 -0.7,10.39 2.86,21.3 10.68,32.64l61.15 -51.32c-9.22,-10.4 -18.78,-16.32 -28.6,-17.78 -9.79,-1.46 -19.24,1.6 -28.32,9.22z"/>
    <path id="12" class="fil5" d="M13747.2 4853.46c-2.58,2.17 -5.36,3.21 -8.28,3.06 -2.91,-0.09 -5.55,-1.55 -7.81,-4.28l-115.14 -137.2c-2.3,-2.77 -3.24,-5.54 -2.87,-8.46 0.38,-2.92 1.88,-5.46 4.48,-7.62 2.44,-2.07 5.12,-3.01 8.04,-2.91 2.91,0.14 5.55,1.54 7.85,4.27l115.14 137.25c2.3,2.73 3.25,5.55 2.87,8.46 -0.42,2.87 -1.84,5.37 -4.28,7.43z"/>
    <path id="13" class="fil4 str2" d="M12186.43 5977.53c9.23,-7.76 19.2,-12.32 30.02,-13.77 10.82,-1.47 21.59,0.27 32.41,5.22 10.77,4.93 20.69,12.84 29.72,23.6 9.22,10.97 15.34,22.21 18.4,33.78 3.05,11.52 3.01,22.58 -0.19,33.11 -3.2,10.54 -9.41,19.67 -18.63,27.38 -8.18,6.91 -16.88,11.15 -26.02,12.65 -9.16,1.55 -18.1,0.33 -26.8,-3.62l9.78 11.66c2.16,2.59 3.16,5.32 2.96,8.18 -0.13,2.83 -1.64,5.42 -4.37,7.72 -2.73,2.3 -5.55,3.3 -8.47,3.06 -2.91,-0.29 -5.45,-1.69 -7.62,-4.28l-115.32 -137.44c-2.07,-2.44 -2.97,-5.12 -2.73,-8.04 0.29,-2.91 1.78,-5.5 4.52,-7.81 2.73,-2.3 5.5,-3.33 8.27,-3.1 2.78,0.28 5.28,1.7 7.43,4.29l48.6 57.89c-2.4,-9.26 -2.03,-18.29 1.08,-27.04 3.1,-8.75 8.74,-16.56 16.97,-23.43zm76.12 97.75c10.24,-8.56 15.19,-18.77 14.81,-30.62 -0.38,-11.86 -5.92,-24.18 -16.7,-37.02 -10.49,-12.51 -21.49,-19.9 -32.87,-22.11 -11.44,-2.16 -22.26,0.99 -32.51,9.59 -10.21,8.57 -15.19,18.68 -14.96,30.25 0.28,11.57 5.79,23.75 16.52,36.55 10.76,12.84 21.86,20.41 33.25,22.76 11.43,2.31 22.25,-0.8 32.46,-9.4z"/>
    <path id="14" class="fil4 str2" d="M12338.76 5859.63c-1.32,-4.79 -0.29,-8.6 3.19,-11.52 2.17,-1.83 4.71,-2.72 7.62,-2.72 2.96,-0.01 5.32,1.08 7.16,3.19 1.08,1.32 1.78,2.73 2.01,4.19l49.16 181.93c0.61,2.16 0.61,4.27 -0.05,6.3 -0.62,2.02 -1.65,3.62 -3.11,4.84 -2.16,1.79 -4.65,2.73 -7.43,2.74 -2.82,0.04 -5.12,-1.04 -6.96,-3.21 -0.94,-1.17 -1.64,-2.53 -2.01,-4.18l-12.28 -45.34 -120.36 -56.59c-1.41,-0.52 -2.63,-1.37 -3.58,-2.5 -1.83,-2.16 -2.44,-4.84 -1.83,-8.08 0.61,-3.2 2.07,-5.79 4.38,-7.72 1.45,-1.22 3.24,-1.97 5.31,-2.25 2.11,-0.29 4.18,0.09 6.21,1.08l104.08 50.75 -31.5 -110.91z"/>
    <path id="15" class="fil4 str2" d="M12527.04 5875.47c-2.72,2.26 -5.59,3.34 -8.61,3.15 -2.96,-0.18 -5.54,-1.59 -7.7,-4.18l-113.35 -135.08c-2.17,-2.59 -3.11,-5.37 -2.78,-8.33 0.32,-3.01 1.88,-5.64 4.61,-7.9l80.81 -67.83c2.59,-2.15 5.17,-3.24 7.66,-3.15 2.54,0.1 4.81,1.32 6.73,3.62 1.93,2.31 2.73,4.71 2.36,7.2 -0.34,2.49 -1.84,4.85 -4.43,7l-72.39 60.78 44.45 52.91 68.06 -57.1c2.59,-2.15 5.13,-3.19 7.67,-3.15 2.54,0.1 4.75,1.32 6.72,3.63 1.94,2.3 2.69,4.7 2.36,7.19 -0.38,2.49 -1.83,4.85 -4.42,7.01l-68.07 57.15 46.43 55.32 72.39 -60.78c2.59,-2.16 5.13,-3.24 7.57,-3.2 2.5,0 4.75,1.22 6.78,3.67 1.97,2.3 2.72,4.7 2.4,7.25 -0.38,2.49 -1.84,4.84 -4.42,7.01l-80.82 67.82z"/>
    <path id="16" class="fil4 str2" d="M12603.15 5628.56c5.69,-5.5 10.77,-5.6 15.24,-0.24 1.93,2.31 2.82,4.66 2.68,7.15 -0.13,2.45 -1.7,5.13 -4.61,8.1l-5.97 6.06c-8.9,8.99 -13.22,18.44 -12.9,28.32 0.39,9.93 3.91,18.91 10.69,26.95l44.07 52.54c2.4,2.87 3.43,5.69 3.06,8.47 -0.37,2.77 -1.88,5.27 -4.47,7.43 -2.58,2.16 -5.36,3.2 -8.28,3.06 -2.91,-0.1 -5.55,-1.55 -7.81,-4.29l-76.53 -91.19c-2.3,-2.73 -3.25,-5.61 -2.77,-8.57 0.47,-2.96 1.92,-5.46 4.37,-7.53 2.31,-1.92 4.9,-2.77 7.72,-2.58 2.87,0.14 5.41,1.54 7.57,4.14l10.16 12.09c-2.31,-8.85 -2.08,-17.27 0.7,-25.26 2.79,-7.95 7.53,-15.24 14.21,-21.87l2.87 -2.78z"/>
    <path id="17" class="fil4 str2" d="M12727.25 5709.3c-2.58,2.17 -5.35,3.2 -8.28,3.06 -2.91,-0.09 -5.54,-1.55 -7.81,-4.28l-76.52 -91.2c-2.31,-2.73 -3.25,-5.55 -2.87,-8.47 0.37,-2.87 1.88,-5.41 4.47,-7.62 2.58,-2.16 5.31,-3.16 8.18,-2.96 2.82,0.19 5.41,1.64 7.71,4.37l76.53 91.21c2.4,2.87 3.44,5.69 3.06,8.46 -0.37,2.78 -1.88,5.27 -4.47,7.43zm-110.05 -131.17c-3.44,2.92 -7.1,4.23 -10.97,4.04 -3.85,-0.19 -7.14,-1.98 -9.91,-5.27 -2.69,-3.2 -3.77,-6.68 -3.3,-10.48 0.47,-3.87 2.4,-7.2 5.88,-10.12 3.44,-2.92 7.1,-4.23 10.96,-4.05 3.86,0.2 7.1,1.89 9.79,5.04 2.77,3.34 3.9,6.92 3.42,10.73 -0.47,3.85 -2.39,7.19 -5.87,10.11z"/>
    <path id="18" class="fil4 str2" d="M12812.35 5638.62c-9.78,8.23 -20.36,13.26 -31.66,15.14 -11.28,1.89 -22.48,0.47 -33.44,-4.33 -11,-4.74 -21.07,-12.55 -30.1,-23.33 -9.07,-10.81 -15.01,-22.19 -17.78,-34.1 -2.73,-11.95 -2.26,-23.37 1.55,-34.43 3.77,-11.01 10.59,-20.69 20.56,-29.02 5.45,-4.61 11.52,-8.42 18.2,-11.43 6.68,-3.01 13.22,-4.79 19.71,-5.26 4.04,-0.47 7.29,-0.34 9.73,0.42 2.5,0.75 4.56,2.16 6.26,4.18 1.7,2.03 2.55,4.09 2.54,6.3 0.04,2.21 -0.85,4.04 -2.54,5.51 -1.03,0.84 -2.35,1.46 -4,1.83 -1.64,0.42 -3.1,0.66 -4.37,0.75 -1.28,0.05 -2.12,0.15 -2.54,0.24 -5.79,0.71 -10.96,1.74 -15.57,3.15 -4.61,1.41 -9.36,4.19 -14.25,8.28 -10.49,8.84 -15.71,19.24 -15.53,31.28 0.15,12.04 5.51,24.36 16.19,37.07 10.62,12.65 21.77,20.03 33.39,22.06 11.62,2.02 22.71,-1.42 33.25,-10.26 4.9,-4.09 8.48,-8.32 10.82,-12.75 2.31,-4.42 4.24,-9.36 5.79,-14.81 0.76,-2.36 1.5,-4.47 2.35,-6.4 0.85,-1.93 1.79,-3.29 2.78,-4.14 1.6,-1.36 3.48,-1.83 5.64,-1.41 2.16,0.38 4.1,1.55 5.79,3.58 1.55,1.88 2.49,3.99 2.73,6.35 0.27,2.35 -0.19,5.64 -1.32,9.83 -1.74,6.11 -4.8,12.36 -9.08,18.81 -4.28,6.44 -9.31,12.04 -15.1,16.89z"/>
    <path id="19" class="fil4 str2" d="M12943.66 5502.3c4.14,0.23 7.19,1.55 9.26,4.04 1.79,2.12 2.63,4.66 2.44,7.48 -0.18,2.87 -1.35,5.23 -3.52,7 -1.88,1.61 -4.51,2.36 -7.99,2.31l-97.23 -1.27 35.75 42.57c2.3,2.73 3.25,5.55 2.87,8.47 -0.42,2.87 -1.84,5.37 -4.28,7.43 -2.59,2.17 -5.36,3.2 -8.29,3.06 -2.9,-0.09 -5.54,-1.55 -7.8,-4.28l-115.14 -137.2c-2.3,-2.77 -3.24,-5.54 -2.87,-8.46 0.38,-2.92 1.88,-5.46 4.48,-7.63 2.44,-2.06 5.12,-3 8.04,-2.91 2.91,0.15 5.55,1.55 7.85,4.28l73.62 87.77 11.94 -90.68c0.28,-3.16 1.51,-5.7 3.67,-7.48 2.16,-1.84 4.66,-2.59 7.58,-2.36 2.91,0.28 5.31,1.47 7.1,3.62 2.07,2.46 2.87,5.46 2.44,9.03l-10.67 73.76 80.76 1.46z"/>
    <path id="20" class="fil4 str2" d="M13108.13 5135.61c-0.98,-2.36 -1.13,-4.62 -0.48,-6.78 0.67,-2.11 1.84,-3.91 3.58,-5.37 2.31,-1.92 4.85,-2.91 7.67,-2.96 2.78,0.01 5.18,1.13 7.1,3.44 0.85,1.04 1.6,2.35 2.26,4l66.66 178.63c0.98,2.64 1.02,5.23 0.23,7.76 -0.84,2.5 -2.3,4.66 -4.47,6.49 -2.02,1.7 -4.37,2.73 -7,3.11 -2.64,0.37 -5.14,-0.14 -7.58,-1.56l-142.8 -84.19 57.67 155.59c0.99,2.63 1.04,5.22 0.24,7.76 -0.85,2.54 -2.26,4.61 -4.29,6.3 -1.97,1.69 -4.32,2.73 -6.96,3.11 -2.63,0.37 -5.17,-0.15 -7.57,-1.56l-164.56 -96.47c-1.38,-0.79 -2.5,-1.69 -3.35,-2.73 -1.93,-2.29 -2.63,-4.94 -2.02,-7.85 0.61,-2.96 2.02,-5.41 4.32,-7.34 1.75,-1.45 3.77,-2.35 6.07,-2.68 2.31,-0.33 4.52,0.19 6.68,1.6l145.52 87.01 -58.64 -157.7c-1.14,-2.78 -1.33,-5.36 -0.67,-7.76 0.71,-2.44 1.98,-4.42 3.85,-5.97 1.88,-1.6 4.1,-2.44 6.64,-2.63 2.54,-0.2 5.08,0.51 7.62,2.06l144.67 85.94 -60.39 -159.25z"/>
    <path id="21" class="fil4 str2" d="M13321.95 5166.81c1.6,-1.31 3.48,-1.83 5.74,-1.5 2.26,0.33 4.19,1.5 5.88,3.53 3.06,3.62 3.3,9.02 0.8,16.31 -2.63,7.34 -6.21,14.22 -10.72,20.57 -4.47,6.34 -9.46,11.8 -14.96,16.41 -16.27,13.68 -33.16,19.61 -50.71,17.92 -17.54,-1.74 -33.43,-11.15 -47.69,-28.13 -9.08,-10.81 -15,-22.1 -17.78,-33.91 -2.77,-11.76 -2.31,-23.14 1.4,-34.1 3.68,-10.96 10.35,-20.46 20,-28.6 13.68,-11.48 28.32,-16.13 43.89,-13.98 15.56,2.17 29.77,10.88 42.57,26.16 2.39,2.87 3.57,5.46 3.52,7.72 -0.05,2.26 -1.41,4.51 -4,6.67l-69.57 58.38c22.11,23.7 44.22,26.24 66.42,7.62 5.6,-4.7 9.78,-9.5 12.56,-14.44 2.77,-4.89 5.36,-10.54 7.81,-17.03 1.92,-5.32 3.53,-8.52 4.84,-9.6zm-96.37 -38.05c-9.22,7.71 -14.21,16.79 -14.91,27.24 -0.71,10.39 2.86,21.3 10.68,32.64l61.14 -51.32c-9.22,-10.4 -18.77,-16.32 -28.59,-17.78 -9.79,-1.46 -19.25,1.6 -28.32,9.22z"/>
    <path id="22" class="fil4 str2" d="M13337.39 5011.77c25.21,-21.16 49.48,-17.83 72.82,9.97l49.1 58.56c2.3,2.73 3.34,5.5 3.11,8.28 -0.24,2.77 -1.74,5.31 -4.48,7.62 -2.72,2.31 -5.54,3.33 -8.41,3.15 -2.82,-0.19 -5.41,-1.64 -7.71,-4.37l-48.22 -57.48c-8.23,-9.79 -16.13,-15.33 -23.7,-16.61 -7.58,-1.22 -15.53,1.65 -23.85,8.66 -9.69,8.09 -14.91,17.49 -15.72,28.26 -0.79,10.74 3.02,21.13 11.49,31.24l44.26 52.73c2.3,2.72 3.28,5.5 3.06,8.28 -0.24,2.77 -1.75,5.31 -4.48,7.61 -2.72,2.3 -5.5,3.34 -8.37,3.15 -2.87,-0.18 -5.45,-1.64 -7.72,-4.37l-76.52 -91.2c-2.17,-2.59 -3.15,-5.32 -2.86,-8.23 0.22,-2.92 1.73,-5.56 4.46,-7.86 2.59,-2.16 5.32,-3.11 8.14,-2.77 2.86,0.32 5.31,1.69 7.33,4.13l9.27 11.01c-1.98,-9.36 -1.27,-18.35 2.07,-26.91 3.34,-8.6 8.99,-16.22 16.93,-22.85z"/>
    <path id="23" class="fil4 str2" d="M13453.45 4836.68c2.73,-2.3 5.55,-3.34 8.47,-3.11 2.92,0.28 5.41,1.65 7.48,4.1l115.28 137.43c2.21,2.58 3.15,5.31 2.91,8.23 -0.28,2.92 -1.78,5.55 -4.51,7.85 -2.73,2.27 -5.51,3.25 -8.37,2.96 -2.83,-0.33 -5.33,-1.78 -7.54,-4.37l-9.77 -11.66c2.4,9.26 2.02,18.29 -1.04,27.04 -3.1,8.7 -8.79,16.56 -16.98,23.42 -9.22,7.77 -19.28,12.29 -30.25,13.6 -10.91,1.32 -21.82,-0.56 -32.64,-5.55 -10.86,-5.03 -20.84,-13.03 -30.06,-23.99 -9.03,-10.77 -15.1,-21.92 -18.1,-33.39 -2.97,-11.48 -2.82,-22.44 0.46,-32.83 3.34,-10.35 9.6,-19.43 18.82,-27.19 8.23,-6.87 16.89,-11.1 26.06,-12.61 9.12,-1.55 18.06,-0.32 26.81,3.62l-48.63 -57.9c-2.17,-2.58 -3.11,-5.27 -2.87,-8.09 0.22,-2.77 1.74,-5.31 4.46,-7.57zm77.24 174.54c10.21,-8.61 15.19,-18.73 14.86,-30.34 -0.32,-11.66 -5.83,-23.89 -16.6,-36.74 -10.78,-12.79 -21.83,-20.32 -33.16,-22.62 -11.34,-2.25 -22.16,0.94 -32.36,9.5 -10.26,8.61 -15.29,18.72 -15.19,30.44 0.08,11.66 5.4,23.8 15.93,36.31 10.78,12.84 21.97,20.41 33.64,22.77 11.71,2.35 22.63,-0.76 32.88,-9.32z"/>
    <path id="24" class="fil4 str2" d="M13684.49 4862.61c1.6,-1.31 3.47,-1.83 5.74,-1.5 2.25,0.33 4.18,1.51 5.88,3.53 3.05,3.62 3.29,9.02 0.79,16.32 -2.63,7.33 -6.2,14.21 -10.72,20.56 -4.47,6.34 -9.46,11.8 -14.96,16.41 -16.27,13.68 -33.16,19.62 -50.7,17.92 -17.55,-1.74 -33.44,-11.15 -47.7,-28.12 -9.08,-10.82 -15,-22.11 -17.78,-33.92 -2.77,-11.76 -2.31,-23.14 1.41,-34.1 3.68,-10.96 10.35,-20.46 20,-28.6 13.68,-11.48 28.31,-16.13 43.88,-13.97 15.57,2.17 29.77,10.87 42.57,26.15 2.4,2.87 3.58,5.46 3.53,7.72 -0.05,2.26 -1.41,4.51 -4.01,6.68l-69.56 58.37c22.11,23.7 44.21,26.25 66.41,7.62 5.6,-4.7 9.79,-9.5 12.56,-14.44 2.78,-4.89 5.37,-10.53 7.81,-17.03 1.93,-5.32 3.53,-8.52 4.85,-9.6zm-96.38 -38.05c-9.22,7.71 -14.21,16.79 -14.91,27.24 -0.7,10.39 2.86,21.3 10.68,32.64l61.15 -51.32c-9.22,-10.4 -18.78,-16.32 -28.6,-17.78 -9.79,-1.46 -19.24,1.6 -28.32,9.22z"/>
    <path id="25" class="fil4 str2" d="M13747.2 4853.46c-2.58,2.17 -5.36,3.21 -8.28,3.06 -2.91,-0.09 -5.55,-1.55 -7.81,-4.28l-115.14 -137.2c-2.3,-2.77 -3.24,-5.54 -2.87,-8.46 0.38,-2.92 1.88,-5.46 4.48,-7.62 2.44,-2.07 5.12,-3.01 8.04,-2.91 2.91,0.14 5.55,1.54 7.85,4.27l115.14 137.25c2.3,2.73 3.25,5.55 2.87,8.46 -0.42,2.87 -1.84,5.37 -4.28,7.43z"/>
   </g>
   <g>
    <path class="fil6" d="M715.48 2586.88l4550.04 0c251.26,0.01 455.02,224.26 455.02,500.8l-0.01 1053.32c0.01,276.52 -203.75,500.77 -455,500.77l-4550.05 0.02c-251.24,-0.02 -455,-224.27 -455,-500.8l-0.01 -1053.33c0.01,-276.52 203.77,-500.77 455.02,-500.77l-0.01 -0.01z"/>
    <path class="fil2 str3" d="M5105.29 2586.86l1814.04 0c284.27,0 514.8,175.67 514.8,392.3l-0.01 1270.34c0.01,216.62 -230.52,392.29 -514.78,392.29l-1814.05 0.01c-284.25,-0.01 -514.78,-175.68 -514.78,-392.31l-0.02 -1270.33c0.02,-216.63 230.55,-392.3 514.81,-392.3z"/>
    <path class="fil5" d="M5455.59 3800.83l-112.34 0 -41.58 239.88 -107.74 0 42.18 -239.88 -132.92 0 0 -99.55 149.92 0 29.78 -170.31 -135.92 0 0 -99.56 153.51 0 42.78 -243.47 107.14 0 -42.78 243.47 112.54 0 43.18 -243.47 107.14 0 -42.58 243.47 128.73 0 0 99.56 -146.32 0 -29.99 170.31 131.93 0 0 99.55 -148.92 0 -42.18 239.88 -107.74 0 42.18 -239.88zm-94.75 -99.55l111.73 0 29.99 -170.31 -112.54 0 -29.18 170.31z"/>
    <path id="1" class="fil5" d="M6421.29 3708.48c0,112.73 -25.78,198.29 -77.56,256.67 -51.77,58.37 -121.73,87.55 -209.89,87.55 -89.16,0 -159.52,-29.18 -211.49,-87.55 -51.98,-58.38 -77.97,-143.93 -77.97,-256.67l0 -187.71c0,-112.53 25.99,-198.09 77.77,-256.67 51.57,-58.77 121.73,-88.16 210.49,-88.16 88.16,0 158.32,29.39 210.49,88.16 52.18,58.58 78.16,144.13 78.16,256.67l0 187.71zm-170.31 -205.5c0,-67.37 -10.19,-116.73 -30.58,-148.12 -20.19,-31.39 -49.58,-46.98 -87.76,-46.98 -38.78,0 -67.97,15.59 -87.96,46.78 -19.79,31.19 -29.79,80.56 -29.79,148.32l0 221.49c0,68.57 10,118.33 30.19,149.52 19.99,31.18 49.58,46.78 88.76,46.78 38.18,0 67.37,-15.6 87.16,-46.78 19.99,-31.19 29.98,-80.96 29.98,-149.52l0 -221.49z"/>
    <polygon id="2" class="fil5" points="6921.44,4040.71 6750.33,4040.71 6750.33,3339.07 6577.02,3339.07 6577.02,3217.93 6921.44,3187.95 "/>
    <path class="fil3" d="M1574.73 5438.97c7.15,0 12.79,2.07 16.93,6.21 4.14,4.14 6.21,9.6 6.21,16.37l0 239.31c0,41.02 -10.54,71.97 -31.61,92.85 -21.07,20.89 -52.3,31.33 -93.7,31.33 -40.26,0 -73.75,-7.9 -100.47,-23.71 -13.54,-7.52 -20.32,-16.18 -20.32,-25.96 0,-5.27 1.41,-9.6 4.24,-12.98 2.82,-3.39 6.49,-5.08 11,-5.08 3.77,0 10.54,2.63 20.32,7.9 13.17,6.77 26.16,12.23 38.95,16.37 12.79,4.14 28.03,6.21 45.72,6.21 26.72,0 46.85,-7.06 60.39,-21.17 13.55,-14.11 20.32,-34.71 20.32,-61.81l0 -48.54c-7.9,17.69 -20.03,31.24 -36.4,40.64 -16.37,9.41 -35.66,14.11 -57.86,14.11 -24.08,0 -45.44,-5.64 -64.06,-16.93 -18.63,-11.29 -33.12,-27.28 -43.46,-47.98 -10.35,-20.69 -15.53,-44.59 -15.53,-71.68 0,-27.09 5.18,-50.99 15.53,-71.68 10.34,-20.7 24.83,-36.69 43.46,-47.98 18.62,-11.29 39.98,-16.94 64.06,-16.94 21.83,0 40.83,4.71 57.01,14.12 16.18,9.4 28.41,22.76 36.69,40.07l0 -30.48c0,-6.77 1.97,-12.23 5.93,-16.37 3.95,-4.14 9.5,-6.21 16.65,-6.21zm-107.24 234.24c26.34,0 47.04,-8.75 62.09,-26.25 15.05,-17.5 22.58,-41.68 22.58,-72.53 0,-30.48 -7.43,-54.47 -22.3,-71.97 -14.86,-17.49 -35.65,-26.24 -62.37,-26.24 -26.71,0 -47.69,8.75 -62.93,26.24 -15.24,17.5 -22.86,41.49 -22.86,71.97 0,30.85 7.62,55.03 22.86,72.53 15.24,17.5 36.22,26.25 62.93,26.25z"/>
    <path id="1" class="fil3" d="M1705.67 5722.31c-6.78,0 -12.33,-1.97 -16.66,-5.92 -4.32,-3.96 -6.49,-9.51 -6.49,-16.66l0 -238.18c0,-7.15 2.17,-12.7 6.49,-16.65 4.33,-3.95 9.88,-5.93 16.66,-5.93 6.77,0 12.22,1.98 16.36,5.93 4.14,3.95 6.21,9.5 6.21,16.65l0 238.18c0,7.53 -2.07,13.17 -6.21,16.94 -4.14,3.76 -9.59,5.64 -16.36,5.64zm0 -342.59c-9.04,0 -16.37,-2.64 -22.02,-7.91 -5.64,-5.26 -8.46,-12.22 -8.46,-20.88 0,-8.28 2.82,-15.05 8.46,-20.32 5.65,-5.27 12.98,-7.9 22.02,-7.9 9.03,0 16.36,2.63 22.01,7.9 5.64,5.27 8.46,12.04 8.46,20.32 0,8.66 -2.82,15.62 -8.46,20.88 -5.65,5.27 -12.98,7.91 -22.01,7.91z"/>
    <path id="2" class="fil3" d="M1940.46 5686.19c13.17,1.13 19.76,7.15 19.76,18.06 0,6.4 -2.35,11.19 -7.06,14.39 -4.7,3.2 -11.76,4.42 -21.16,3.67l-15.24 -1.13c-30.11,-2.25 -52.31,-11.29 -66.61,-27.09 -14.3,-15.8 -21.45,-39.7 -21.45,-71.68l0 -141.67 -37.81 0c-6.4,0 -11.39,-1.6 -14.96,-4.8 -3.58,-3.19 -5.36,-7.43 -5.36,-12.7 0,-5.64 1.78,-10.16 5.36,-13.54 3.57,-3.39 8.56,-5.08 14.96,-5.08l37.81 0 0 -63.78c0,-7.15 2.07,-12.7 6.21,-16.65 4.14,-3.96 9.79,-5.93 16.93,-5.93 6.78,0 12.23,1.97 16.37,5.93 4.14,3.95 6.21,9.5 6.21,16.65l0 63.78 62.66 0c6.02,0 10.81,1.69 14.39,5.08 3.57,3.38 5.36,7.9 5.36,13.54 0,5.27 -1.79,9.51 -5.36,12.7 -3.58,3.2 -8.37,4.8 -14.39,4.8l-62.66 0 0 143.92c0,20.7 4.24,35.66 12.7,44.88 8.47,9.22 21.17,14.39 38.1,15.52l15.24 1.13z"/>
    <path id="3" class="fil3" d="M2144.22 5437.84c32.36,0 56.82,9.13 73.37,27.38 16.56,18.25 24.84,45.44 24.84,81.56l0 152.95c0,7.15 -2.07,12.7 -6.21,16.66 -4.14,3.95 -9.6,5.92 -16.37,5.92 -7.15,0 -12.79,-1.97 -16.93,-5.92 -4.14,-3.96 -6.21,-9.51 -6.21,-16.66l0 -151.82c0,-24.46 -4.99,-42.52 -14.96,-54.19 -9.97,-11.66 -25.87,-17.49 -47.69,-17.49 -25.22,0 -45.35,7.71 -60.4,23.14 -15.05,15.43 -22.58,36.31 -22.58,62.65l0 137.71c0,7.15 -1.97,12.7 -5.92,16.66 -3.96,3.95 -9.51,5.92 -16.65,5.92 -7.15,0 -12.8,-1.97 -16.94,-5.92 -4.14,-3.96 -6.21,-9.51 -6.21,-16.66l0 -358.96c0,-6.4 2.17,-11.66 6.49,-15.8 4.33,-4.14 9.88,-6.21 16.66,-6.21 7.14,0 12.69,1.97 16.65,5.92 3.95,3.96 5.92,9.32 5.92,16.09l0 147.87c9.03,-16.55 21.64,-29.16 37.82,-37.81 16.18,-8.66 34.62,-12.99 55.32,-12.99z"/>
    <path id="4" class="fil3" d="M2534.79 5438.97c7.15,0 12.7,2.07 16.65,6.21 3.95,4.14 5.92,9.6 5.92,16.37l0 238.75c0,6.4 -1.97,11.66 -5.92,15.8 -3.95,4.14 -9.5,6.21 -16.65,6.21 -6.78,0 -12.14,-1.97 -16.09,-5.92 -3.95,-3.96 -5.93,-9.13 -5.93,-15.53l0 -28.22c-8.65,16.56 -20.79,29.16 -36.4,37.82 -15.62,8.65 -33.21,12.98 -52.78,12.98 -32.74,0 -57.38,-9.12 -73.94,-27.37 -16.56,-18.25 -24.84,-45.25 -24.84,-81l0 -153.52c0,-6.77 2.07,-12.23 6.21,-16.37 4.14,-4.14 9.79,-6.21 16.94,-6.21 7.15,0 12.7,2.07 16.65,6.21 3.95,4.14 5.92,9.6 5.92,16.37l0 152.39c0,24.46 4.9,42.43 14.68,53.9 9.78,11.48 25.21,17.22 46.28,17.22 24.09,0 43.47,-7.81 58.14,-23.43 14.68,-15.61 22.01,-36.21 22.01,-61.8l0 -138.28c0,-6.77 2.07,-12.23 6.21,-16.37 4.14,-4.14 9.79,-6.21 16.94,-6.21z"/>
    <path id="5" class="fil3" d="M2780.87 5437.84c24.08,0 45.34,5.84 63.78,17.5 18.44,11.67 32.74,28.22 42.9,49.67 10.16,21.45 15.24,46.29 15.24,74.51 0,28.6 -5.08,53.71 -15.24,75.35 -10.16,21.64 -24.46,38.48 -42.9,50.52 -18.44,12.04 -39.7,18.06 -63.78,18.06 -21.45,0 -40.17,-4.7 -56.16,-14.11 -15.99,-9.41 -28.13,-22.77 -36.41,-40.08l0 30.48c0,6.78 -1.97,12.23 -5.92,16.37 -3.96,4.14 -9.51,6.21 -16.65,6.21 -7.15,0 -12.8,-2.07 -16.94,-6.21 -4.14,-4.14 -6.21,-9.59 -6.21,-16.37l0 -358.96c0,-6.4 2.07,-11.66 6.21,-15.8 4.14,-4.14 9.79,-6.21 16.94,-6.21 7.14,0 12.69,1.97 16.65,5.92 3.95,3.96 5.92,9.32 5.92,16.09l0 151.26c8.28,-17.31 20.42,-30.67 36.41,-40.07 15.99,-9.41 34.71,-14.12 56.16,-14.12zm-9.03 247.78c26.72,0 47.41,-9.31 62.09,-27.94 14.67,-18.62 22.01,-44.68 22.01,-78.17 0,-32.74 -7.34,-58.14 -22.01,-76.2 -14.68,-18.06 -35.37,-27.09 -62.09,-27.09 -26.72,0 -47.32,9.03 -61.81,27.09 -14.48,18.06 -21.73,43.84 -21.73,77.33 0,33.49 7.25,59.36 21.73,77.61 14.49,18.25 35.09,27.37 61.81,27.37z"/>
    <path id="6" class="fil3" d="M2984.06 5722.31c-9.03,0 -16.56,-2.91 -22.58,-8.75 -6.02,-5.83 -9.03,-13.45 -9.03,-22.86 0,-9.4 3.01,-17.12 9.03,-23.14 6.02,-6.02 13.55,-9.03 22.58,-9.03 8.66,0 15.9,3.01 21.73,9.03 5.83,6.02 8.75,13.74 8.75,23.14 0,9.41 -2.92,17.03 -8.75,22.86 -5.83,5.84 -13.07,8.75 -21.73,8.75z"/>
    <path id="7" class="fil3" d="M3194.59 5723.44c-25.59,0 -48.26,-5.83 -68.02,-17.5 -19.75,-11.66 -34.99,-28.22 -45.72,-49.67 -10.72,-21.45 -16.09,-46.28 -16.09,-74.5 0,-28.23 5.55,-53.25 16.66,-75.07 11.1,-21.83 26.62,-38.76 46.56,-50.8 19.95,-12.04 42.9,-18.07 68.86,-18.07 14.3,0 28.51,1.98 42.62,5.93 14.11,3.95 26.43,9.69 36.97,17.22 6.77,4.51 11.57,8.93 14.39,13.26 2.82,4.33 4.24,9.13 4.24,14.39 0,5.27 -1.42,9.6 -4.24,12.99 -2.82,3.38 -6.49,5.08 -11,5.08 -2.64,0 -5.46,-0.76 -8.47,-2.26 -3.01,-1.51 -5.55,-3.01 -7.62,-4.52 -2.07,-1.5 -3.48,-2.44 -4.23,-2.82 -9.79,-6.4 -19.1,-11.48 -27.94,-15.24 -8.85,-3.76 -19.67,-5.64 -32.46,-5.64 -27.47,0 -48.82,9.31 -64.06,27.94 -15.24,18.62 -22.86,44.49 -22.86,77.61 0,33.11 7.62,58.7 22.86,76.76 15.24,18.06 36.59,27.09 64.06,27.09 12.79,0 23.8,-1.88 33.02,-5.64 9.22,-3.76 18.53,-8.84 27.94,-15.24 4.14,-2.63 8.09,-4.89 11.85,-6.77 3.77,-1.89 6.97,-2.83 9.6,-2.83 4.14,0 7.62,1.7 10.44,5.08 2.82,3.39 4.23,7.72 4.23,12.99 0,4.89 -1.31,9.31 -3.95,13.26 -2.63,3.95 -7.52,8.37 -14.67,13.26 -10.54,7.15 -23.24,12.89 -38.1,17.22 -14.87,4.33 -29.82,6.49 -44.87,6.49z"/>
    <path id="8" class="fil3" d="M3465.51 5723.44c-25.96,0 -48.82,-5.83 -68.58,-17.5 -19.75,-11.66 -34.99,-28.31 -45.72,-49.95 -10.72,-21.64 -16.09,-46.75 -16.09,-75.35 0,-28.6 5.37,-53.72 16.09,-75.35 10.73,-21.64 25.97,-38.29 45.72,-49.96 19.76,-11.66 42.62,-17.5 68.58,-17.5 25.96,0 48.92,5.84 68.86,17.5 19.95,11.67 35.28,28.32 46,49.96 10.73,21.63 16.09,46.75 16.09,75.35 0,28.6 -5.36,53.71 -16.09,75.35 -10.72,21.64 -26.05,38.29 -46,49.95 -19.94,11.67 -42.9,17.5 -68.86,17.5zm0 -37.82c27.09,0 47.88,-8.93 62.37,-26.81 14.49,-17.87 21.73,-43.93 21.73,-78.17 0,-33.49 -7.34,-59.36 -22.01,-77.61 -14.68,-18.25 -35.37,-27.38 -62.09,-27.38 -26.72,0 -47.41,9.13 -62.09,27.38 -14.67,18.25 -22.01,44.12 -22.01,77.61 0,33.86 7.24,59.83 21.73,77.89 14.49,18.06 35.28,27.09 62.37,27.09z"/>
    <path id="9" class="fil3" d="M3970.65 5437.84c60.96,0 91.44,36.32 91.44,108.93l0 152.95c0,7.15 -2.07,12.7 -6.21,16.66 -4.14,3.95 -9.6,5.92 -16.37,5.92 -6.77,0 -12.32,-1.97 -16.65,-5.92 -4.33,-3.96 -6.49,-9.51 -6.49,-16.66l0 -151.82c0,-25.21 -4.52,-43.46 -13.55,-54.75 -9.03,-11.29 -23.14,-16.93 -42.33,-16.93 -22.95,0 -41.02,7.71 -54.19,23.14 -13.17,15.43 -19.75,36.31 -19.75,62.65l0 137.71c0,7.15 -2.17,12.7 -6.49,16.66 -4.33,3.95 -9.88,5.92 -16.65,5.92 -6.78,0 -12.23,-1.97 -16.37,-5.92 -4.14,-3.96 -6.21,-9.51 -6.21,-16.66l0 -151.82c0,-25.21 -4.52,-43.46 -13.55,-54.75 -9.03,-11.29 -23.33,-16.93 -42.9,-16.93 -22.57,0 -40.54,7.71 -53.9,23.14 -13.36,15.43 -20.04,36.31 -20.04,62.65l0 137.71c0,7.15 -2.07,12.7 -6.21,16.66 -4.14,3.95 -9.59,5.92 -16.36,5.92 -6.78,0 -12.33,-1.97 -16.66,-5.92 -4.32,-3.96 -6.49,-9.51 -6.49,-16.66l0 -238.18c0,-6.77 2.17,-12.23 6.49,-16.37 4.33,-4.14 9.88,-6.21 16.66,-6.21 6.39,0 11.66,1.98 15.8,5.93 4.14,3.95 6.21,9.31 6.21,16.09l0 27.09c8.28,-16.18 19.75,-28.6 34.43,-37.25 14.67,-8.66 31.61,-12.99 50.8,-12.99 42.9,0 70.93,18.07 84.1,54.19 7.9,-16.56 19.94,-29.73 36.12,-39.51 16.18,-9.78 34.62,-14.68 55.32,-14.68z"/>
    <path id="10" class="fil3" d="M4134.89 5739.81c-1.51,4.89 -3.95,8.65 -7.34,11.29 -3.39,2.63 -7.15,3.95 -11.29,3.95 -5.27,0 -9.97,-1.88 -14.11,-5.64 -4.14,-3.77 -6.21,-8.47 -6.21,-14.12 0,-2.25 0.57,-4.89 1.7,-7.9l133.19 -416.53c1.51,-4.9 3.95,-8.66 7.34,-11.29 3.39,-2.64 7.15,-3.95 11.29,-3.95 5.27,0 9.97,1.88 14.11,5.64 4.14,3.76 6.21,8.65 6.21,14.68 0,1.12 -0.38,3.57 -1.13,7.33l-133.76 416.54z"/>
    <path id="11" class="fil3" d="M4383.8 5437.84c68.86,0 103.29,36.13 103.29,108.37l0 153.51c0,6.78 -1.98,12.23 -5.93,16.37 -3.95,4.14 -9.31,6.21 -16.08,6.21 -6.78,0 -12.23,-2.07 -16.37,-6.21 -4.14,-4.14 -6.21,-9.59 -6.21,-16.37l0 -27.09c-7.15,16.18 -18.06,28.69 -32.74,37.54 -14.67,8.84 -31.61,13.26 -50.8,13.26 -17.68,0 -33.96,-3.57 -48.82,-10.72 -14.87,-7.15 -26.63,-17.12 -35.28,-29.92 -8.66,-12.79 -12.98,-26.9 -12.98,-42.33 0,-20.7 5.27,-36.78 15.8,-48.26 10.54,-11.48 27.85,-19.76 51.93,-24.84 24.08,-5.08 57.57,-7.62 100.47,-7.62l12.42 0 0 -18.62c0,-22.58 -4.61,-39.14 -13.83,-49.67 -9.22,-10.54 -24.18,-15.81 -44.87,-15.81 -25.59,0 -51.56,6.96 -77.9,20.89 -10.16,6.39 -17.31,9.59 -21.44,9.59 -4.52,0 -8.28,-1.69 -11.29,-5.08 -3.01,-3.38 -4.52,-7.71 -4.52,-12.98 0,-5.27 1.6,-9.88 4.8,-13.83 3.2,-3.95 8.37,-8 15.52,-12.13 13.17,-7.53 28.13,-13.46 44.87,-17.78 16.75,-4.33 33.4,-6.5 49.96,-6.5zm-18.63 249.48c22.58,0 41.11,-7.62 55.6,-22.86 14.48,-15.24 21.73,-34.9 21.73,-58.99l0 -16.37 -10.16 0c-33.12,0 -58.33,1.42 -75.64,4.24 -17.31,2.82 -29.63,7.52 -36.97,14.11 -7.34,6.58 -11,16.27 -11,29.07 0,14.67 5.36,26.81 16.08,36.4 10.73,9.6 24.18,14.4 40.36,14.4z"/>
    <path id="12" class="fil3" d="M4793.56 5438.97c7.15,0 12.79,2.07 16.93,6.21 4.14,4.14 6.21,9.6 6.21,16.37l0 239.31c0,41.02 -10.54,71.97 -31.61,92.85 -21.07,20.89 -52.3,31.33 -93.7,31.33 -40.26,0 -73.75,-7.9 -100.47,-23.71 -13.54,-7.52 -20.32,-16.18 -20.32,-25.96 0,-5.27 1.41,-9.6 4.24,-12.98 2.82,-3.39 6.49,-5.08 11,-5.08 3.77,0 10.54,2.63 20.32,7.9 13.17,6.77 26.16,12.23 38.95,16.37 12.79,4.14 28.03,6.21 45.72,6.21 26.72,0 46.85,-7.06 60.39,-21.17 13.55,-14.11 20.32,-34.71 20.32,-61.81l0 -48.54c-7.9,17.69 -20.03,31.24 -36.4,40.64 -16.37,9.41 -35.66,14.11 -57.86,14.11 -24.08,0 -45.44,-5.64 -64.06,-16.93 -18.63,-11.29 -33.12,-27.28 -43.46,-47.98 -10.35,-20.69 -15.53,-44.59 -15.53,-71.68 0,-27.09 5.18,-50.99 15.53,-71.68 10.34,-20.7 24.83,-36.69 43.46,-47.98 18.62,-11.29 39.98,-16.94 64.06,-16.94 21.83,0 40.83,4.71 57.01,14.12 16.18,9.4 28.41,22.76 36.69,40.07l0 -30.48c0,-6.77 1.97,-12.23 5.93,-16.37 3.95,-4.14 9.5,-6.21 16.65,-6.21zm-107.24 234.24c26.34,0 47.04,-8.75 62.09,-26.25 15.05,-17.5 22.58,-41.68 22.58,-72.53 0,-30.48 -7.43,-54.47 -22.3,-71.97 -14.86,-17.49 -35.65,-26.24 -62.37,-26.24 -26.71,0 -47.69,8.75 -62.93,26.24 -15.24,17.5 -22.86,41.49 -22.86,71.97 0,30.85 7.62,55.03 22.86,72.53 15.24,17.5 36.22,26.25 62.93,26.25z"/>
    <path id="13" class="fil3" d="M5022.71 5357.7c-19.95,1.51 -35,7.81 -45.16,18.91 -10.16,11.1 -15.24,27.75 -15.24,49.96l0 18.06 62.66 0c6.39,0 11.28,1.69 14.67,5.08 3.39,3.38 5.08,7.9 5.08,13.54 0,5.65 -1.69,9.98 -5.08,12.99 -3.39,3.01 -8.28,4.51 -14.67,4.51l-62.66 0 0 218.99c0,7.15 -2.16,12.7 -6.49,16.66 -4.33,3.95 -9.69,5.92 -16.09,5.92 -6.77,0 -12.32,-1.97 -16.65,-5.92 -4.32,-3.96 -6.49,-9.51 -6.49,-16.66l0 -218.99 -37.81 0c-6.4,0 -11.39,-1.6 -14.96,-4.8 -3.58,-3.19 -5.36,-7.43 -5.36,-12.7 0,-5.64 1.78,-10.16 5.36,-13.54 3.57,-3.39 8.56,-5.08 14.96,-5.08l37.81 0 0 -10.16c0,-33.87 8.47,-60.49 25.4,-79.87 16.94,-19.38 41.21,-30.2 72.82,-32.46l14.67 -1.12c9.78,-0.76 16.84,0.18 21.17,2.82 4.32,2.63 6.49,7.34 6.49,14.11 0,10.91 -6.59,17.12 -19.76,18.63l-14.67 1.12z"/>
    <path id="14" class="fil3" d="M5200.49 5686.19c13.17,1.13 19.76,7.15 19.76,18.06 0,6.4 -2.35,11.19 -7.06,14.39 -4.7,3.2 -11.76,4.42 -21.16,3.67l-15.24 -1.13c-30.11,-2.25 -52.31,-11.29 -66.61,-27.09 -14.3,-15.8 -21.45,-39.7 -21.45,-71.68l0 -141.67 -37.81 0c-6.4,0 -11.39,-1.6 -14.96,-4.8 -3.58,-3.19 -5.36,-7.43 -5.36,-12.7 0,-5.64 1.78,-10.16 5.36,-13.54 3.57,-3.39 8.56,-5.08 14.96,-5.08l37.81 0 0 -63.78c0,-7.15 2.07,-12.7 6.21,-16.65 4.14,-3.96 9.79,-5.93 16.93,-5.93 6.78,0 12.23,1.97 16.37,5.93 4.14,3.95 6.21,9.5 6.21,16.65l0 63.78 62.66 0c6.02,0 10.81,1.69 14.39,5.08 3.57,3.38 5.36,7.9 5.36,13.54 0,5.27 -1.79,9.51 -5.36,12.7 -3.58,3.2 -8.37,4.8 -14.39,4.8l-62.66 0 0 143.92c0,20.7 4.24,35.66 12.7,44.88 8.47,9.22 21.17,14.39 38.1,15.52l15.24 1.13z"/>
    <path id="15" class="fil3" d="M5478.19 5655.71c4.14,0 7.71,1.69 10.72,5.08 3.01,3.38 4.52,7.71 4.52,12.98 0,9.41 -6.59,18.06 -19.76,25.96 -13.55,7.91 -27.84,13.83 -42.9,17.78 -15.05,3.96 -29.72,5.93 -44.02,5.93 -42.52,0 -76.11,-12.6 -100.75,-37.82 -24.65,-25.21 -36.98,-60.02 -36.98,-104.42 0,-28.22 5.46,-53.15 16.37,-74.79 10.92,-21.63 26.25,-38.47 46,-50.51 19.76,-12.04 42.24,-18.07 67.46,-18.07 35.74,0 64.15,11.67 85.23,35 21.07,23.33 31.6,54.94 31.6,94.83 0,7.52 -1.5,12.98 -4.51,16.36 -3.01,3.39 -7.9,5.08 -14.68,5.08l-181.74 0c3.39,64.73 34.06,97.09 92.01,97.09 14.67,0 27.28,-1.98 37.82,-5.93 10.53,-3.95 21.82,-9.31 33.86,-16.09 9.79,-5.64 16.37,-8.46 19.76,-8.46zm-98.78 -182.31c-24.08,0 -43.37,7.53 -57.86,22.58 -14.48,15.05 -23.04,36.31 -25.68,63.78l159.73 0c-0.75,-27.84 -7.71,-49.2 -20.88,-64.06 -13.18,-14.86 -31.61,-22.3 -55.32,-22.3z"/>
    <path id="16" class="fil3" d="M5676.3 5723.44c-25.59,0 -48.26,-5.83 -68.02,-17.5 -19.75,-11.66 -34.99,-28.22 -45.72,-49.67 -10.72,-21.45 -16.09,-46.28 -16.09,-74.5 0,-28.23 5.55,-53.25 16.66,-75.07 11.1,-21.83 26.62,-38.76 46.56,-50.8 19.95,-12.04 42.9,-18.07 68.86,-18.07 14.3,0 28.51,1.98 42.62,5.93 14.11,3.95 26.43,9.69 36.97,17.22 6.77,4.51 11.57,8.93 14.39,13.26 2.82,4.33 4.24,9.13 4.24,14.39 0,5.27 -1.42,9.6 -4.24,12.99 -2.82,3.38 -6.49,5.08 -11,5.08 -2.64,0 -5.46,-0.76 -8.47,-2.26 -3.01,-1.51 -5.55,-3.01 -7.62,-4.52 -2.07,-1.5 -3.48,-2.44 -4.23,-2.82 -9.79,-6.4 -19.1,-11.48 -27.94,-15.24 -8.85,-3.76 -19.67,-5.64 -32.46,-5.64 -27.47,0 -48.82,9.31 -64.06,27.94 -15.24,18.62 -22.86,44.49 -22.86,77.61 0,33.11 7.62,58.7 22.86,76.76 15.24,18.06 36.59,27.09 64.06,27.09 12.79,0 23.8,-1.88 33.02,-5.64 9.22,-3.76 18.53,-8.84 27.94,-15.24 4.14,-2.63 8.09,-4.89 11.85,-6.77 3.77,-1.89 6.97,-2.83 9.6,-2.83 4.14,0 7.62,1.7 10.44,5.08 2.82,3.39 4.23,7.72 4.23,12.99 0,4.89 -1.31,9.31 -3.95,13.26 -2.63,3.95 -7.52,8.37 -14.67,13.26 -10.54,7.15 -23.24,12.89 -38.1,17.22 -14.87,4.33 -29.82,6.49 -44.87,6.49z"/>
    <path id="17" class="fil3" d="M5972.06 5437.84c32.36,0 56.82,9.13 73.37,27.38 16.56,18.25 24.84,45.44 24.84,81.56l0 152.95c0,7.15 -2.07,12.7 -6.21,16.66 -4.14,3.95 -9.6,5.92 -16.37,5.92 -7.15,0 -12.79,-1.97 -16.93,-5.92 -4.14,-3.96 -6.21,-9.51 -6.21,-16.66l0 -151.82c0,-24.46 -4.99,-42.52 -14.96,-54.19 -9.97,-11.66 -25.87,-17.49 -47.69,-17.49 -25.22,0 -45.35,7.71 -60.4,23.14 -15.05,15.43 -22.58,36.31 -22.58,62.65l0 137.71c0,7.15 -1.97,12.7 -5.92,16.66 -3.96,3.95 -9.51,5.92 -16.65,5.92 -7.15,0 -12.8,-1.97 -16.94,-5.92 -4.14,-3.96 -6.21,-9.51 -6.21,-16.66l0 -358.96c0,-6.4 2.17,-11.66 6.49,-15.8 4.33,-4.14 9.88,-6.21 16.66,-6.21 7.14,0 12.69,1.97 16.65,5.92 3.95,3.96 5.92,9.32 5.92,16.09l0 147.87c9.03,-16.55 21.64,-29.16 37.82,-37.81 16.18,-8.66 34.62,-12.99 55.32,-12.99z"/>
    <polygon class="fil0" points="3867.53,3929.1 3867.53,3724.48 4157.28,3614.34 3867.53,3504.17 3867.53,3299.55 4432.39,3509.75 4433.74,3509.25 4433.74,3510.25 4433.74,3718.42 4433.74,3719.42 4432.39,3718.92 "/>
    <polygon class="fil0" points="1020.49,3504.09 1020.49,3299.47 455.42,3509.75 454.29,3509.32 454.29,3510.16 454.29,3718.49 454.29,3719.33 455.42,3718.91 1020.49,3929.18 1020.49,3724.56 730.52,3614.33 "/>
    <path class="fil5" d="M1543.45 3276.2l0 730.06c0,82.48 -22.01,146.05 -65.81,190.96 -43.79,44.91 -104.93,67.36 -182.95,67.36 -17.34,0 -33.35,-0.89 -47.58,-2.67 -14.23,-1.55 -29.57,-4.44 -45.57,-8.22l9.11 -143.61c10,2.67 20.01,4.45 30.01,5.78 10.01,1.33 20.46,2 31.79,2 25.79,0 45.36,-9.11 59.36,-27.12 13.79,-18.01 20.9,-45.58 20.9,-83.15l0 -731.39 190.74 0zm-4 -170.73l-190.74 0 0 -141.38 190.74 0 0 141.38zm533.53 680.48c0,-20.67 -10,-38.46 -30.23,-53.58 -20.24,-15.11 -57.58,-28.67 -112.49,-40.23 -83.37,-17.12 -146.05,-42.02 -188.51,-75.37 -42.24,-33.13 -63.36,-78.48 -63.36,-135.83 0,-60.69 25.34,-112.26 76.48,-154.5 50.91,-42.46 119.37,-63.58 204.74,-63.58 90.04,0 161.39,21.12 214.75,63.14 53.13,42.02 78.7,95.15 76.47,159.39l-1.33 4 -183.62 0c0,-28.23 -9.12,-51.35 -27.13,-69.14 -18,-17.78 -44.24,-26.68 -79.14,-26.68 -30.68,0 -54.91,7.56 -72.48,22.46 -17.78,14.89 -26.45,33.79 -26.45,56.24 0,21.79 9.11,39.58 27.57,53.58 18.45,13.79 56.02,26.24 112.48,37.13 86.7,17.34 151.39,42.68 193.4,76.48 42.02,33.57 63.14,79.81 63.14,138.93 0,63.36 -27.12,115.15 -81.37,155.17 -54.24,40.24 -125.82,60.25 -214.97,60.25 -93.81,0 -167.84,-23.79 -222.3,-71.36 -54.47,-47.36 -80.48,-101.6 -77.81,-162.29l1.11 -4 174.06 0c1.11,37.57 13.56,64.92 37.13,81.59 23.34,16.9 54.02,25.35 91.81,25.35 35.13,0 61.81,-6.9 80.26,-20.68 18.45,-13.78 27.79,-32.68 27.79,-56.47zm618.68 207.86c-101.6,0 -182.73,-32.46 -243.43,-97.6 -60.91,-65.14 -91.15,-147.83 -91.15,-248.09l0 -26.01c0,-104.49 28.68,-190.74 86.26,-258.33 57.58,-67.8 134.72,-101.37 231.42,-100.93 95.16,0 168.95,28.68 221.42,85.82 52.69,57.35 78.92,134.71 78.92,232.31l0 103.37 -420.82 0 -1.34 4.01c3.56,46.24 19.12,84.25 46.69,114.03 27.57,29.79 64.92,44.69 112.26,44.69 42.24,0 77.14,-4.22 104.93,-12.67 27.79,-8.45 58.25,-21.79 91.15,-40.02l51.58 117.6c-28.68,23.56 -66.25,43.13 -112.7,58.47 -46.47,15.56 -98.27,23.34 -155.17,23.34zm-16.9 -584.22c-35.12,0 -62.91,13.34 -83.36,40.24 -20.24,26.9 -32.91,62.25 -37.8,105.81l2 3.34 233.2 0 0 -16.9c0,-40.24 -9.56,-72.47 -28.23,-96.48 -18.9,-24.01 -47.58,-36.02 -85.82,-36.02zm676.26 90.26l3.78 0 108.04 -223.64 214.97 0 -212.3 348.13 219.41 356.13 -214.08 0 -115.37 -233.64 -115.37 233.64 -214.75 0 219.42 -356.13 -212.97 -348.13 213.63 0 105.59 223.64z"/>
    <g>
     <path class="fil3" d="M2751.73 1931.4l-125.37 0 -253.11 -428.46 -2.64 0.3 0 428.16 -125.82 0 0 -627.03 125.82 0 253.25 428.02 2.5 -0.3 0 -427.72 125.37 0 0 627.03zm502.98 -275.16l-259.72 0 0 178.15 303.52 0 0 97.01 -429.34 0 0 -627.03 428.6 0 0 97.01 -302.78 0 0 157.86 259.72 0 0 97.01zm562.79 -254.87l-177.41 0 0 530.02 -125.81 0 0 -530.02 -176.53 0 0 -97.01 479.76 0 0 97.01zm458.59 269.87l-262.66 0 0 260.16 -125.82 0 0 -627.03 432.43 0 0 97.01 -306.61 0 0 172.85 262.66 0 0 97.02zm246.35 163.15l278.97 0 0 97.01 -404.79 0 0 -627.03 125.82 0 0 530.02zm484.9 97.01l-125.82 0 0 -627.03 125.82 0 0 627.03zm346.14 -404.79l117.58 -222.24 146.39 0 -185.93 310.87 196.81 316.16 -152.13 0 -120.96 -226.06 -120.96 226.06 -146.83 0 190.78 -316.16 -186.08 -310.87 145.51 0 115.82 222.24z"/>
     <path class="fil7" d="M2069.44 1885.76l22.17 -1.85c-8.04,-5.4 -14.29,-12.12 -18.73,-20.27 -4.39,-8.1 -6.62,-17.46 -6.62,-28.1 0,-10.74 2.39,-19.95 7.15,-27.62 4.76,-7.62 11.9,-13.44 21.54,-17.36 -9,-5.19 -16.04,-11.91 -21.07,-20.16 -5.08,-8.26 -7.62,-17.99 -7.62,-29.16 0,-16.51 5.72,-29.58 17.15,-39.1 11.38,-9.58 28.79,-14.34 52.12,-14.34l101.55 0 0 45.24 -101.86 0c-12.76,0 -21.59,2.06 -26.57,6.19 -4.97,4.13 -7.46,10.32 -7.46,18.47 0,6.4 1.43,11.96 4.29,16.67 2.85,4.71 6.77,8.46 11.85,11.22 1.96,0 3.65,-0.06 5.08,-0.16 1.38,-0.11 2.8,-0.16 4.23,-0.16l110.43 0 0 45.14 -101.86 0c-12.44,0 -21.22,2.06 -26.36,6.19 -5.13,4.13 -7.67,10.37 -7.67,18.62 0,6.09 1.16,11.43 3.49,16.04 2.33,4.6 5.61,8.41 9.84,11.38l122.55 0 0 45.13 -167.63 0 0 -42.01zm97.21 -293.15l9.31 -1.85 0 -0.9 -106.51 -32.12 0 -48.69 192.66 68.05c11.96,4.77 22.07,11.22 30.27,19.43 8.2,8.14 12.33,20.37 12.33,36.72 0,3.81 -0.32,7.35 -0.95,10.64 -0.59,3.22 -1.49,7.19 -2.6,11.85l-32.96 -5.29c0.21,-1.33 0.42,-2.81 0.63,-4.34 0.21,-1.54 0.32,-2.97 0.32,-4.18 0,-7.46 -1.85,-13.18 -5.51,-17.2 -3.7,-4.02 -8.25,-7.14 -13.75,-9.31l-13.02 -5.3 -167.42 59.54 0 -48.69 97.21 -28.36z"/>
    </g>
   </g>
   <g>
    <path class="fil3" d="M16339.54 5438.97c7.15,0 12.79,2.07 16.93,6.21 4.14,4.14 6.21,9.6 6.21,16.37l0 239.31c0,41.02 -10.54,71.97 -31.61,92.85 -21.07,20.89 -52.3,31.33 -93.7,31.33 -40.26,0 -73.75,-7.9 -100.47,-23.71 -13.54,-7.52 -20.32,-16.18 -20.32,-25.96 0,-5.27 1.41,-9.6 4.24,-12.98 2.82,-3.39 6.49,-5.08 11,-5.08 3.77,0 10.54,2.63 20.32,7.9 13.17,6.77 26.16,12.23 38.95,16.37 12.79,4.14 28.03,6.21 45.72,6.21 26.72,0 46.85,-7.06 60.39,-21.17 13.55,-14.11 20.32,-34.71 20.32,-61.81l0 -48.54c-7.9,17.69 -20.03,31.24 -36.4,40.64 -16.37,9.41 -35.66,14.11 -57.86,14.11 -24.08,0 -45.44,-5.64 -64.06,-16.93 -18.63,-11.29 -33.12,-27.28 -43.46,-47.98 -10.35,-20.69 -15.53,-44.59 -15.53,-71.68 0,-27.09 5.18,-50.99 15.53,-71.68 10.34,-20.7 24.83,-36.69 43.46,-47.98 18.62,-11.29 39.98,-16.94 64.06,-16.94 21.83,0 40.83,4.71 57.01,14.12 16.18,9.4 28.41,22.76 36.69,40.07l0 -30.48c0,-6.77 1.97,-12.23 5.93,-16.37 3.95,-4.14 9.5,-6.21 16.65,-6.21zm-107.24 234.24c26.34,0 47.04,-8.75 62.09,-26.25 15.05,-17.5 22.58,-41.68 22.58,-72.53 0,-30.48 -7.43,-54.47 -22.3,-71.97 -14.86,-17.49 -35.65,-26.24 -62.37,-26.24 -26.71,0 -47.69,8.75 -62.93,26.24 -15.24,17.5 -22.86,41.49 -22.86,71.97 0,30.85 7.62,55.03 22.86,72.53 15.24,17.5 36.22,26.25 62.93,26.25z"/>
    <path id="1" class="fil3" d="M16470.49 5722.31c-6.78,0 -12.33,-1.97 -16.66,-5.92 -4.32,-3.96 -6.49,-9.51 -6.49,-16.66l0 -238.18c0,-7.15 2.17,-12.7 6.49,-16.65 4.33,-3.95 9.88,-5.93 16.66,-5.93 6.77,0 12.22,1.98 16.36,5.93 4.14,3.95 6.21,9.5 6.21,16.65l0 238.18c0,7.53 -2.07,13.17 -6.21,16.94 -4.14,3.76 -9.59,5.64 -16.36,5.64zm0 -342.59c-9.04,0 -16.37,-2.64 -22.02,-7.91 -5.64,-5.26 -8.46,-12.22 -8.46,-20.88 0,-8.28 2.82,-15.05 8.46,-20.32 5.65,-5.27 12.98,-7.9 22.02,-7.9 9.03,0 16.36,2.63 22.01,7.9 5.64,5.27 8.46,12.04 8.46,20.32 0,8.66 -2.82,15.62 -8.46,20.88 -5.65,5.27 -12.98,7.91 -22.01,7.91z"/>
    <path id="2" class="fil3" d="M16705.28 5686.19c13.17,1.13 19.76,7.15 19.76,18.06 0,6.4 -2.35,11.19 -7.06,14.39 -4.7,3.2 -11.76,4.42 -21.16,3.67l-15.24 -1.13c-30.11,-2.25 -52.31,-11.29 -66.61,-27.09 -14.3,-15.8 -21.45,-39.7 -21.45,-71.68l0 -141.67 -37.81 0c-6.4,0 -11.39,-1.6 -14.96,-4.8 -3.58,-3.19 -5.36,-7.43 -5.36,-12.7 0,-5.64 1.78,-10.16 5.36,-13.54 3.57,-3.39 8.56,-5.08 14.96,-5.08l37.81 0 0 -63.78c0,-7.15 2.07,-12.7 6.21,-16.65 4.14,-3.96 9.79,-5.93 16.93,-5.93 6.78,0 12.23,1.97 16.37,5.93 4.14,3.95 6.21,9.5 6.21,16.65l0 63.78 62.66 0c6.02,0 10.81,1.69 14.39,5.08 3.57,3.38 5.36,7.9 5.36,13.54 0,5.27 -1.79,9.51 -5.36,12.7 -3.58,3.2 -8.37,4.8 -14.39,4.8l-62.66 0 0 143.92c0,20.7 4.24,35.66 12.7,44.88 8.47,9.22 21.17,14.39 38.1,15.52l15.24 1.13z"/>
    <path id="3" class="fil3" d="M16909.04 5437.84c32.36,0 56.82,9.13 73.37,27.38 16.56,18.25 24.84,45.44 24.84,81.56l0 152.95c0,7.15 -2.07,12.7 -6.21,16.66 -4.14,3.95 -9.6,5.92 -16.37,5.92 -7.15,0 -12.79,-1.97 -16.93,-5.92 -4.14,-3.96 -6.21,-9.51 -6.21,-16.66l0 -151.82c0,-24.46 -4.99,-42.52 -14.96,-54.19 -9.97,-11.66 -25.87,-17.49 -47.69,-17.49 -25.22,0 -45.35,7.71 -60.4,23.14 -15.05,15.43 -22.58,36.31 -22.58,62.65l0 137.71c0,7.15 -1.97,12.7 -5.92,16.66 -3.96,3.95 -9.51,5.92 -16.65,5.92 -7.15,0 -12.8,-1.97 -16.94,-5.92 -4.14,-3.96 -6.21,-9.51 -6.21,-16.66l0 -358.96c0,-6.4 2.17,-11.66 6.49,-15.8 4.33,-4.14 9.88,-6.21 16.66,-6.21 7.14,0 12.69,1.97 16.65,5.92 3.95,3.96 5.92,9.32 5.92,16.09l0 147.87c9.03,-16.55 21.64,-29.16 37.82,-37.81 16.18,-8.66 34.62,-12.99 55.32,-12.99z"/>
    <path id="4" class="fil3" d="M17299.61 5438.97c7.15,0 12.7,2.07 16.65,6.21 3.95,4.14 5.92,9.6 5.92,16.37l0 238.75c0,6.4 -1.97,11.66 -5.92,15.8 -3.95,4.14 -9.5,6.21 -16.65,6.21 -6.78,0 -12.14,-1.97 -16.09,-5.92 -3.95,-3.96 -5.93,-9.13 -5.93,-15.53l0 -28.22c-8.65,16.56 -20.79,29.16 -36.4,37.82 -15.62,8.65 -33.21,12.98 -52.78,12.98 -32.74,0 -57.38,-9.12 -73.94,-27.37 -16.56,-18.25 -24.84,-45.25 -24.84,-81l0 -153.52c0,-6.77 2.07,-12.23 6.21,-16.37 4.14,-4.14 9.79,-6.21 16.94,-6.21 7.15,0 12.7,2.07 16.65,6.21 3.95,4.14 5.92,9.6 5.92,16.37l0 152.39c0,24.46 4.9,42.43 14.68,53.9 9.78,11.48 25.21,17.22 46.28,17.22 24.09,0 43.47,-7.81 58.14,-23.43 14.68,-15.61 22.01,-36.21 22.01,-61.8l0 -138.28c0,-6.77 2.07,-12.23 6.21,-16.37 4.14,-4.14 9.79,-6.21 16.94,-6.21z"/>
    <path id="5" class="fil3" d="M17545.69 5437.84c24.08,0 45.34,5.84 63.78,17.5 18.44,11.67 32.74,28.22 42.9,49.67 10.16,21.45 15.24,46.29 15.24,74.51 0,28.6 -5.08,53.71 -15.24,75.35 -10.16,21.64 -24.46,38.48 -42.9,50.52 -18.44,12.04 -39.7,18.06 -63.78,18.06 -21.45,0 -40.17,-4.7 -56.16,-14.11 -15.99,-9.41 -28.13,-22.77 -36.41,-40.08l0 30.48c0,6.78 -1.97,12.23 -5.92,16.37 -3.96,4.14 -9.51,6.21 -16.65,6.21 -7.15,0 -12.8,-2.07 -16.94,-6.21 -4.14,-4.14 -6.21,-9.59 -6.21,-16.37l0 -358.96c0,-6.4 2.07,-11.66 6.21,-15.8 4.14,-4.14 9.79,-6.21 16.94,-6.21 7.14,0 12.69,1.97 16.65,5.92 3.95,3.96 5.92,9.32 5.92,16.09l0 151.26c8.28,-17.31 20.42,-30.67 36.41,-40.07 15.99,-9.41 34.71,-14.12 56.16,-14.12zm-9.03 247.78c26.72,0 47.41,-9.31 62.09,-27.94 14.67,-18.62 22.01,-44.68 22.01,-78.17 0,-32.74 -7.34,-58.14 -22.01,-76.2 -14.68,-18.06 -35.37,-27.09 -62.09,-27.09 -26.72,0 -47.32,9.03 -61.81,27.09 -14.48,18.06 -21.73,43.84 -21.73,77.33 0,33.49 7.25,59.36 21.73,77.61 14.49,18.25 35.09,27.37 61.81,27.37z"/>
    <path id="6" class="fil3" d="M17748.88 5722.31c-9.03,0 -16.56,-2.91 -22.58,-8.75 -6.02,-5.83 -9.03,-13.45 -9.03,-22.86 0,-9.4 3.01,-17.12 9.03,-23.14 6.02,-6.02 13.55,-9.03 22.58,-9.03 8.66,0 15.9,3.01 21.73,9.03 5.83,6.02 8.75,13.74 8.75,23.14 0,9.41 -2.92,17.03 -8.75,22.86 -5.83,5.84 -13.07,8.75 -21.73,8.75z"/>
    <path id="7" class="fil3" d="M17959.41 5723.44c-25.59,0 -48.26,-5.83 -68.02,-17.5 -19.75,-11.66 -34.99,-28.22 -45.72,-49.67 -10.72,-21.45 -16.09,-46.28 -16.09,-74.5 0,-28.23 5.55,-53.25 16.66,-75.07 11.1,-21.83 26.62,-38.76 46.56,-50.8 19.95,-12.04 42.9,-18.07 68.86,-18.07 14.3,0 28.51,1.98 42.62,5.93 14.11,3.95 26.43,9.69 36.97,17.22 6.77,4.51 11.57,8.93 14.39,13.26 2.82,4.33 4.24,9.13 4.24,14.39 0,5.27 -1.42,9.6 -4.24,12.99 -2.82,3.38 -6.49,5.08 -11,5.08 -2.64,0 -5.46,-0.76 -8.47,-2.26 -3.01,-1.51 -5.55,-3.01 -7.62,-4.52 -2.07,-1.5 -3.48,-2.44 -4.23,-2.82 -9.79,-6.4 -19.1,-11.48 -27.94,-15.24 -8.85,-3.76 -19.67,-5.64 -32.46,-5.64 -27.47,0 -48.82,9.31 -64.06,27.94 -15.24,18.62 -22.86,44.49 -22.86,77.61 0,33.11 7.62,58.7 22.86,76.76 15.24,18.06 36.59,27.09 64.06,27.09 12.79,0 23.8,-1.88 33.02,-5.64 9.22,-3.76 18.53,-8.84 27.94,-15.24 4.14,-2.63 8.09,-4.89 11.85,-6.77 3.77,-1.89 6.97,-2.83 9.6,-2.83 4.14,0 7.62,1.7 10.44,5.08 2.82,3.39 4.23,7.72 4.23,12.99 0,4.89 -1.31,9.31 -3.95,13.26 -2.63,3.95 -7.52,8.37 -14.67,13.26 -10.54,7.15 -23.24,12.89 -38.1,17.22 -14.87,4.33 -29.82,6.49 -44.87,6.49z"/>
    <path id="8" class="fil3" d="M18230.32 5723.44c-25.96,0 -48.82,-5.83 -68.58,-17.5 -19.75,-11.66 -34.99,-28.31 -45.72,-49.95 -10.72,-21.64 -16.09,-46.75 -16.09,-75.35 0,-28.6 5.37,-53.72 16.09,-75.35 10.73,-21.64 25.97,-38.29 45.72,-49.96 19.76,-11.66 42.62,-17.5 68.58,-17.5 25.96,0 48.92,5.84 68.86,17.5 19.95,11.67 35.28,28.32 46,49.96 10.73,21.63 16.09,46.75 16.09,75.35 0,28.6 -5.36,53.71 -16.09,75.35 -10.72,21.64 -26.05,38.29 -46,49.95 -19.94,11.67 -42.9,17.5 -68.86,17.5zm0 -37.82c27.09,0 47.88,-8.93 62.37,-26.81 14.49,-17.87 21.73,-43.93 21.73,-78.17 0,-33.49 -7.34,-59.36 -22.01,-77.61 -14.68,-18.25 -35.37,-27.38 -62.09,-27.38 -26.72,0 -47.41,9.13 -62.09,27.38 -14.67,18.25 -22.01,44.12 -22.01,77.61 0,33.86 7.24,59.83 21.73,77.89 14.49,18.06 35.28,27.09 62.37,27.09z"/>
    <path id="9" class="fil3" d="M18735.47 5437.84c60.96,0 91.44,36.32 91.44,108.93l0 152.95c0,7.15 -2.07,12.7 -6.21,16.66 -4.14,3.95 -9.6,5.92 -16.37,5.92 -6.77,0 -12.32,-1.97 -16.65,-5.92 -4.33,-3.96 -6.49,-9.51 -6.49,-16.66l0 -151.82c0,-25.21 -4.52,-43.46 -13.55,-54.75 -9.03,-11.29 -23.14,-16.93 -42.33,-16.93 -22.95,0 -41.02,7.71 -54.19,23.14 -13.17,15.43 -19.75,36.31 -19.75,62.65l0 137.71c0,7.15 -2.17,12.7 -6.49,16.66 -4.33,3.95 -9.88,5.92 -16.65,5.92 -6.78,0 -12.23,-1.97 -16.37,-5.92 -4.14,-3.96 -6.21,-9.51 -6.21,-16.66l0 -151.82c0,-25.21 -4.52,-43.46 -13.55,-54.75 -9.03,-11.29 -23.33,-16.93 -42.9,-16.93 -22.57,0 -40.54,7.71 -53.9,23.14 -13.36,15.43 -20.04,36.31 -20.04,62.65l0 137.71c0,7.15 -2.07,12.7 -6.21,16.66 -4.14,3.95 -9.59,5.92 -16.36,5.92 -6.78,0 -12.33,-1.97 -16.66,-5.92 -4.32,-3.96 -6.49,-9.51 -6.49,-16.66l0 -238.18c0,-6.77 2.17,-12.23 6.49,-16.37 4.33,-4.14 9.88,-6.21 16.66,-6.21 6.39,0 11.66,1.98 15.8,5.93 4.14,3.95 6.21,9.31 6.21,16.09l0 27.09c8.28,-16.18 19.75,-28.6 34.43,-37.25 14.67,-8.66 31.61,-12.99 50.8,-12.99 42.9,0 70.93,18.07 84.1,54.19 7.9,-16.56 19.94,-29.73 36.12,-39.51 16.18,-9.78 34.62,-14.68 55.32,-14.68z"/>
    <path id="10" class="fil3" d="M18899.71 5739.81c-1.51,4.89 -3.95,8.65 -7.34,11.29 -3.39,2.63 -7.15,3.95 -11.29,3.95 -5.27,0 -9.97,-1.88 -14.11,-5.64 -4.14,-3.77 -6.21,-8.47 -6.21,-14.12 0,-2.25 0.57,-4.89 1.7,-7.9l133.19 -416.53c1.51,-4.9 3.95,-8.66 7.34,-11.29 3.39,-2.64 7.15,-3.95 11.29,-3.95 5.27,0 9.97,1.88 14.11,5.64 4.14,3.76 6.21,8.65 6.21,14.68 0,1.12 -0.38,3.57 -1.13,7.33l-133.76 416.54z"/>
    <path id="11" class="fil3" d="M19148.62 5437.84c68.86,0 103.29,36.13 103.29,108.37l0 153.51c0,6.78 -1.98,12.23 -5.93,16.37 -3.95,4.14 -9.31,6.21 -16.08,6.21 -6.78,0 -12.23,-2.07 -16.37,-6.21 -4.14,-4.14 -6.21,-9.59 -6.21,-16.37l0 -27.09c-7.15,16.18 -18.06,28.69 -32.74,37.54 -14.67,8.84 -31.61,13.26 -50.8,13.26 -17.68,0 -33.96,-3.57 -48.82,-10.72 -14.87,-7.15 -26.63,-17.12 -35.28,-29.92 -8.66,-12.79 -12.98,-26.9 -12.98,-42.33 0,-20.7 5.27,-36.78 15.8,-48.26 10.54,-11.48 27.85,-19.76 51.93,-24.84 24.08,-5.08 57.57,-7.62 100.47,-7.62l12.42 0 0 -18.62c0,-22.58 -4.61,-39.14 -13.83,-49.67 -9.22,-10.54 -24.18,-15.81 -44.87,-15.81 -25.59,0 -51.56,6.96 -77.9,20.89 -10.16,6.39 -17.31,9.59 -21.44,9.59 -4.52,0 -8.28,-1.69 -11.29,-5.08 -3.01,-3.38 -4.52,-7.71 -4.52,-12.98 0,-5.27 1.6,-9.88 4.8,-13.83 3.2,-3.95 8.37,-8 15.52,-12.13 13.17,-7.53 28.13,-13.46 44.87,-17.78 16.75,-4.33 33.4,-6.5 49.96,-6.5zm-18.63 249.48c22.58,0 41.11,-7.62 55.6,-22.86 14.48,-15.24 21.73,-34.9 21.73,-58.99l0 -16.37 -10.16 0c-33.12,0 -58.33,1.42 -75.64,4.24 -17.31,2.82 -29.63,7.52 -36.97,14.11 -7.34,6.58 -11,16.27 -11,29.07 0,14.67 5.36,26.81 16.08,36.4 10.73,9.6 24.18,14.4 40.36,14.4z"/>
    <path id="12" class="fil3" d="M19558.38 5438.97c7.15,0 12.79,2.07 16.93,6.21 4.14,4.14 6.21,9.6 6.21,16.37l0 239.31c0,41.02 -10.54,71.97 -31.61,92.85 -21.07,20.89 -52.3,31.33 -93.7,31.33 -40.26,0 -73.75,-7.9 -100.47,-23.71 -13.54,-7.52 -20.32,-16.18 -20.32,-25.96 0,-5.27 1.41,-9.6 4.24,-12.98 2.82,-3.39 6.49,-5.08 11,-5.08 3.77,0 10.54,2.63 20.32,7.9 13.17,6.77 26.16,12.23 38.95,16.37 12.79,4.14 28.03,6.21 45.72,6.21 26.72,0 46.85,-7.06 60.39,-21.17 13.55,-14.11 20.32,-34.71 20.32,-61.81l0 -48.54c-7.9,17.69 -20.03,31.24 -36.4,40.64 -16.37,9.41 -35.66,14.11 -57.86,14.11 -24.08,0 -45.44,-5.64 -64.06,-16.93 -18.63,-11.29 -33.12,-27.28 -43.46,-47.98 -10.35,-20.69 -15.53,-44.59 -15.53,-71.68 0,-27.09 5.18,-50.99 15.53,-71.68 10.34,-20.7 24.83,-36.69 43.46,-47.98 18.62,-11.29 39.98,-16.94 64.06,-16.94 21.83,0 40.83,4.71 57.01,14.12 16.18,9.4 28.41,22.76 36.69,40.07l0 -30.48c0,-6.77 1.97,-12.23 5.93,-16.37 3.95,-4.14 9.5,-6.21 16.65,-6.21zm-107.24 234.24c26.34,0 47.04,-8.75 62.09,-26.25 15.05,-17.5 22.58,-41.68 22.58,-72.53 0,-30.48 -7.43,-54.47 -22.3,-71.97 -14.86,-17.49 -35.65,-26.24 -62.37,-26.24 -26.71,0 -47.69,8.75 -62.93,26.24 -15.24,17.5 -22.86,41.49 -22.86,71.97 0,30.85 7.62,55.03 22.86,72.53 15.24,17.5 36.22,26.25 62.93,26.25z"/>
    <path id="13" class="fil3" d="M19787.53 5357.7c-19.95,1.51 -35,7.81 -45.16,18.91 -10.16,11.1 -15.24,27.75 -15.24,49.96l0 18.06 62.66 0c6.39,0 11.28,1.69 14.67,5.08 3.39,3.38 5.08,7.9 5.08,13.54 0,5.65 -1.69,9.98 -5.08,12.99 -3.39,3.01 -8.28,4.51 -14.67,4.51l-62.66 0 0 218.99c0,7.15 -2.16,12.7 -6.49,16.66 -4.33,3.95 -9.69,5.92 -16.09,5.92 -6.77,0 -12.32,-1.97 -16.65,-5.92 -4.32,-3.96 -6.49,-9.51 -6.49,-16.66l0 -218.99 -37.81 0c-6.4,0 -11.39,-1.6 -14.96,-4.8 -3.58,-3.19 -5.36,-7.43 -5.36,-12.7 0,-5.64 1.78,-10.16 5.36,-13.54 3.57,-3.39 8.56,-5.08 14.96,-5.08l37.81 0 0 -10.16c0,-33.87 8.47,-60.49 25.4,-79.87 16.94,-19.38 41.21,-30.2 72.82,-32.46l14.67 -1.12c9.78,-0.76 16.84,0.18 21.17,2.82 4.32,2.63 6.49,7.34 6.49,14.11 0,10.91 -6.59,17.12 -19.76,18.63l-14.67 1.12z"/>
    <path id="14" class="fil3" d="M19965.31 5686.19c13.17,1.13 19.76,7.15 19.76,18.06 0,6.4 -2.35,11.19 -7.06,14.39 -4.7,3.2 -11.76,4.42 -21.16,3.67l-15.24 -1.13c-30.11,-2.25 -52.31,-11.29 -66.61,-27.09 -14.3,-15.8 -21.45,-39.7 -21.45,-71.68l0 -141.67 -37.81 0c-6.4,0 -11.39,-1.6 -14.96,-4.8 -3.58,-3.19 -5.36,-7.43 -5.36,-12.7 0,-5.64 1.78,-10.16 5.36,-13.54 3.57,-3.39 8.56,-5.08 14.96,-5.08l37.81 0 0 -63.78c0,-7.15 2.07,-12.7 6.21,-16.65 4.14,-3.96 9.79,-5.93 16.93,-5.93 6.78,0 12.23,1.97 16.37,5.93 4.14,3.95 6.21,9.5 6.21,16.65l0 63.78 62.66 0c6.02,0 10.81,1.69 14.39,5.08 3.57,3.38 5.36,7.9 5.36,13.54 0,5.27 -1.79,9.51 -5.36,12.7 -3.58,3.2 -8.37,4.8 -14.39,4.8l-62.66 0 0 143.92c0,20.7 4.24,35.66 12.7,44.88 8.47,9.22 21.17,14.39 38.1,15.52l15.24 1.13z"/>
    <path id="15" class="fil3" d="M20243.01 5655.71c4.14,0 7.71,1.69 10.72,5.08 3.01,3.38 4.52,7.71 4.52,12.98 0,9.41 -6.59,18.06 -19.76,25.96 -13.55,7.91 -27.84,13.83 -42.9,17.78 -15.05,3.96 -29.72,5.93 -44.02,5.93 -42.52,0 -76.11,-12.6 -100.75,-37.82 -24.65,-25.21 -36.98,-60.02 -36.98,-104.42 0,-28.22 5.46,-53.15 16.37,-74.79 10.92,-21.63 26.25,-38.47 46,-50.51 19.76,-12.04 42.24,-18.07 67.46,-18.07 35.74,0 64.15,11.67 85.23,35 21.07,23.33 31.6,54.94 31.6,94.83 0,7.52 -1.5,12.98 -4.51,16.36 -3.01,3.39 -7.9,5.08 -14.68,5.08l-181.74 0c3.39,64.73 34.06,97.09 92.01,97.09 14.67,0 27.28,-1.98 37.82,-5.93 10.53,-3.95 21.82,-9.31 33.86,-16.09 9.79,-5.64 16.37,-8.46 19.76,-8.46zm-98.78 -182.31c-24.08,0 -43.37,7.53 -57.86,22.58 -14.48,15.05 -23.04,36.31 -25.68,63.78l159.73 0c-0.75,-27.84 -7.71,-49.2 -20.88,-64.06 -13.18,-14.86 -31.61,-22.3 -55.32,-22.3z"/>
    <path id="16" class="fil3" d="M20441.12 5723.44c-25.59,0 -48.26,-5.83 -68.02,-17.5 -19.75,-11.66 -34.99,-28.22 -45.72,-49.67 -10.72,-21.45 -16.09,-46.28 -16.09,-74.5 0,-28.23 5.55,-53.25 16.66,-75.07 11.1,-21.83 26.62,-38.76 46.56,-50.8 19.95,-12.04 42.9,-18.07 68.86,-18.07 14.3,0 28.51,1.98 42.62,5.93 14.11,3.95 26.43,9.69 36.97,17.22 6.77,4.51 11.57,8.93 14.39,13.26 2.82,4.33 4.24,9.13 4.24,14.39 0,5.27 -1.42,9.6 -4.24,12.99 -2.82,3.38 -6.49,5.08 -11,5.08 -2.64,0 -5.46,-0.76 -8.47,-2.26 -3.01,-1.51 -5.55,-3.01 -7.62,-4.52 -2.07,-1.5 -3.48,-2.44 -4.23,-2.82 -9.79,-6.4 -19.1,-11.48 -27.94,-15.24 -8.85,-3.76 -19.67,-5.64 -32.46,-5.64 -27.47,0 -48.82,9.31 -64.06,27.94 -15.24,18.62 -22.86,44.49 -22.86,77.61 0,33.11 7.62,58.7 22.86,76.76 15.24,18.06 36.59,27.09 64.06,27.09 12.79,0 23.8,-1.88 33.02,-5.64 9.22,-3.76 18.53,-8.84 27.94,-15.24 4.14,-2.63 8.09,-4.89 11.85,-6.77 3.77,-1.89 6.97,-2.83 9.6,-2.83 4.14,0 7.62,1.7 10.44,5.08 2.82,3.39 4.23,7.72 4.23,12.99 0,4.89 -1.31,9.31 -3.95,13.26 -2.63,3.95 -7.52,8.37 -14.67,13.26 -10.54,7.15 -23.24,12.89 -38.1,17.22 -14.87,4.33 -29.82,6.49 -44.87,6.49z"/>
    <path id="17" class="fil3" d="M20736.87 5437.84c32.36,0 56.82,9.13 73.37,27.38 16.56,18.25 24.84,45.44 24.84,81.56l0 152.95c0,7.15 -2.07,12.7 -6.21,16.66 -4.14,3.95 -9.6,5.92 -16.37,5.92 -7.15,0 -12.79,-1.97 -16.93,-5.92 -4.14,-3.96 -6.21,-9.51 -6.21,-16.66l0 -151.82c0,-24.46 -4.99,-42.52 -14.96,-54.19 -9.97,-11.66 -25.87,-17.49 -47.69,-17.49 -25.22,0 -45.35,7.71 -60.4,23.14 -15.05,15.43 -22.58,36.31 -22.58,62.65l0 137.71c0,7.15 -1.97,12.7 -5.92,16.66 -3.96,3.95 -9.51,5.92 -16.65,5.92 -7.15,0 -12.8,-1.97 -16.94,-5.92 -4.14,-3.96 -6.21,-9.51 -6.21,-16.66l0 -358.96c0,-6.4 2.17,-11.66 6.49,-15.8 4.33,-4.14 9.88,-6.21 16.66,-6.21 7.14,0 12.69,1.97 16.65,5.92 3.95,3.96 5.92,9.32 5.92,16.09l0 147.87c9.03,-16.55 21.64,-29.16 37.82,-37.81 16.18,-8.66 34.62,-12.99 55.32,-12.99z"/>
    <path class="fil6" d="M17047.47 2586.88l4550.04 0c251.26,0.01 455.02,224.26 455.02,500.8l-0.01 1053.32c0.01,276.52 -203.75,500.77 -455,500.77l-4550.05 0.02c-251.24,-0.02 -455,-224.27 -455,-500.8l-0.01 -1053.33c0.01,-276.52 203.77,-500.77 455.02,-500.77l-0.01 -0.01z"/>
    <path class="fil2 str3" d="M15397.57 2586.86l1814.04 0c284.27,0 514.8,175.67 514.8,392.3l-0.01 1270.34c0.01,216.62 -230.52,392.29 -514.78,392.29l-1814.05 0.01c-284.25,-0.01 -514.78,-175.68 -514.78,-392.31l-0.02 -1270.33c0.02,-216.63 230.55,-392.3 514.81,-392.3z"/>
    <path class="fil5" d="M15747.87 3800.84l-112.34 0 -41.58 239.88 -107.74 0 42.18 -239.88 -132.92 0 0 -99.55 149.92 0 29.78 -170.31 -135.92 0 0 -99.56 153.51 0 42.78 -243.47 107.14 0 -42.78 243.47 112.54 0 43.18 -243.47 107.14 0 -42.58 243.47 128.73 0 0 99.56 -146.32 0 -29.99 170.31 131.93 0 0 99.55 -148.92 0 -42.18 239.88 -107.74 0 42.18 -239.88zm-94.75 -99.55l111.73 0 29.99 -170.31 -112.54 0 -29.18 170.31z"/>
    <path id="1" class="fil5" d="M16713.58 3708.49c0,112.73 -25.78,198.29 -77.56,256.67 -51.77,58.37 -121.73,87.55 -209.89,87.55 -89.16,0 -159.52,-29.18 -211.49,-87.55 -51.98,-58.38 -77.97,-143.93 -77.97,-256.67l0 -187.71c0,-112.53 25.99,-198.09 77.77,-256.67 51.57,-58.77 121.73,-88.16 210.49,-88.16 88.16,0 158.32,29.39 210.49,88.16 52.18,58.58 78.16,144.13 78.16,256.67l0 187.71zm-170.31 -205.5c0,-67.37 -10.19,-116.73 -30.58,-148.12 -20.19,-31.39 -49.58,-46.98 -87.76,-46.98 -38.78,0 -67.97,15.59 -87.96,46.78 -19.79,31.19 -29.79,80.56 -29.79,148.32l0 221.49c0,68.57 10,118.33 30.19,149.52 19.99,31.18 49.58,46.78 88.76,46.78 38.18,0 67.37,-15.6 87.16,-46.78 19.99,-31.19 29.98,-80.96 29.98,-149.52l0 -221.49z"/>
    <polygon id="2" class="fil5" points="17213.72,4040.72 17042.61,4040.72 17042.61,3339.08 16869.3,3339.08 16869.3,3217.94 17213.72,3187.96 "/>
    <polygon class="fil0" points="18408.43,3504.09 18408.43,3299.47 17843.35,3509.75 17842.22,3509.32 17842.22,3510.16 17842.22,3718.49 17842.22,3719.33 17843.35,3718.91 18408.43,3929.18 18408.43,3724.56 18118.45,3614.33 "/>
    <g>
     <polygon class="fil0" points="21223.58,3079.04 20891.4,4145.32 21088.64,4145.32 21420.82,3079.04 "/>
     <polygon class="fil0" points="21414.89,3926.96 21414.89,3722.34 21704.65,3612.2 21414.89,3502.03 21414.89,3297.41 21979.76,3507.61 21981.11,3507.11 21981.11,3508.11 21981.11,3716.28 21981.11,3717.28 21979.76,3716.78 "/>
    </g>
    <path class="fil5" d="M18743.77 3274.05l0 730.06c0,82.48 -22.01,146.05 -65.81,190.96 -43.79,44.91 -104.93,67.36 -182.95,67.36 -17.34,0 -33.35,-0.89 -47.58,-2.67 -14.23,-1.55 -29.57,-4.44 -45.57,-8.22l9.11 -143.61c10,2.67 20.01,4.45 30.01,5.78 10.01,1.33 20.46,2 31.79,2 25.79,0 45.36,-9.11 59.36,-27.12 13.79,-18.01 20.9,-45.58 20.9,-83.15l0 -731.39 190.74 0zm-4 -170.73l-190.74 0 0 -141.38 190.74 0 0 141.38zm533.53 680.48c0,-20.67 -10,-38.46 -30.23,-53.58 -20.24,-15.11 -57.58,-28.67 -112.49,-40.23 -83.37,-17.12 -146.05,-42.02 -188.51,-75.37 -42.24,-33.13 -63.36,-78.48 -63.36,-135.83 0,-60.69 25.34,-112.26 76.48,-154.5 50.91,-42.46 119.37,-63.58 204.74,-63.58 90.04,0 161.39,21.12 214.75,63.14 53.13,42.02 78.7,95.15 76.47,159.39l-1.33 4 -183.62 0c0,-28.23 -9.12,-51.35 -27.13,-69.14 -18,-17.78 -44.24,-26.68 -79.14,-26.68 -30.68,0 -54.91,7.56 -72.48,22.46 -17.78,14.89 -26.45,33.79 -26.45,56.24 0,21.79 9.11,39.58 27.57,53.58 18.45,13.79 56.02,26.24 112.48,37.13 86.7,17.34 151.39,42.68 193.4,76.48 42.02,33.57 63.14,79.81 63.14,138.93 0,63.36 -27.12,115.15 -81.37,155.17 -54.24,40.24 -125.82,60.25 -214.97,60.25 -93.81,0 -167.84,-23.79 -222.3,-71.36 -54.47,-47.36 -80.48,-101.6 -77.81,-162.29l1.11 -4 174.06 0c1.11,37.57 13.56,64.92 37.13,81.59 23.34,16.9 54.02,25.35 91.81,25.35 35.13,0 61.81,-6.9 80.26,-20.68 18.45,-13.78 27.79,-32.68 27.79,-56.47zm618.68 207.86c-101.6,0 -182.73,-32.46 -243.43,-97.6 -60.91,-65.14 -91.15,-147.83 -91.15,-248.09l0 -26.01c0,-104.49 28.68,-190.74 86.26,-258.33 57.58,-67.8 134.72,-101.37 231.42,-100.93 95.16,0 168.95,28.68 221.42,85.82 52.69,57.35 78.92,134.71 78.92,232.31l0 103.37 -420.82 0 -1.34 4.01c3.56,46.24 19.12,84.25 46.69,114.03 27.57,29.79 64.92,44.69 112.26,44.69 42.24,0 77.14,-4.22 104.93,-12.67 27.79,-8.45 58.25,-21.79 91.15,-40.02l51.58 117.6c-28.68,23.56 -66.25,43.13 -112.7,58.47 -46.47,15.56 -98.27,23.34 -155.17,23.34zm-16.9 -584.22c-35.12,0 -62.91,13.34 -83.36,40.24 -20.24,26.9 -32.91,62.25 -37.8,105.81l2 3.34 233.2 0 0 -16.9c0,-40.24 -9.56,-72.47 -28.23,-96.48 -18.9,-24.01 -47.58,-36.02 -85.82,-36.02zm676.26 90.26l3.78 0 108.04 -223.64 214.97 0 -212.3 348.13 219.41 356.13 -214.08 0 -115.37 -233.64 -115.37 233.64 -214.75 0 219.42 -356.13 -212.97 -348.13 213.63 0 105.59 223.64z"/>
    <g>
     <path class="fil3" d="M17372.08 1931.4l-125.37 0 -253.11 -428.46 -2.64 0.3 0 428.16 -125.82 0 0 -627.03 125.82 0 253.25 428.02 2.5 -0.3 0 -427.72 125.37 0 0 627.03zm502.98 -275.16l-259.72 0 0 178.15 303.52 0 0 97.01 -429.34 0 0 -627.03 428.6 0 0 97.01 -302.78 0 0 157.86 259.72 0 0 97.01zm562.79 -254.87l-177.41 0 0 530.02 -125.81 0 0 -530.02 -176.53 0 0 -97.01 479.76 0 0 97.01zm458.59 269.87l-262.66 0 0 260.16 -125.82 0 0 -627.03 432.43 0 0 97.01 -306.61 0 0 172.85 262.66 0 0 97.02zm246.35 163.15l278.97 0 0 97.01 -404.79 0 0 -627.03 125.82 0 0 530.02zm484.9 97.01l-125.82 0 0 -627.03 125.82 0 0 627.03zm346.14 -404.79l117.58 -222.24 146.39 0 -185.93 310.87 196.81 316.16 -152.13 0 -120.96 -226.06 -120.96 226.06 -146.83 0 190.78 -316.16 -186.08 -310.87 145.51 0 115.82 222.24z"/>
     <path class="fil7" d="M16689.8 1885.76l22.17 -1.85c-8.04,-5.4 -14.29,-12.12 -18.73,-20.27 -4.39,-8.1 -6.62,-17.46 -6.62,-28.1 0,-10.74 2.39,-19.95 7.15,-27.62 4.76,-7.62 11.9,-13.44 21.54,-17.36 -9,-5.19 -16.04,-11.91 -21.07,-20.16 -5.08,-8.26 -7.62,-17.99 -7.62,-29.16 0,-16.51 5.72,-29.58 17.15,-39.1 11.38,-9.58 28.79,-14.34 52.12,-14.34l101.55 0 0 45.24 -101.86 0c-12.76,0 -21.59,2.06 -26.57,6.19 -4.97,4.13 -7.46,10.32 -7.46,18.47 0,6.4 1.43,11.96 4.29,16.67 2.85,4.71 6.77,8.46 11.85,11.22 1.96,0 3.65,-0.06 5.08,-0.16 1.38,-0.11 2.8,-0.16 4.23,-0.16l110.43 0 0 45.14 -101.86 0c-12.44,0 -21.22,2.06 -26.36,6.19 -5.13,4.13 -7.67,10.37 -7.67,18.62 0,6.09 1.16,11.43 3.49,16.04 2.33,4.6 5.61,8.41 9.84,11.38l122.55 0 0 45.13 -167.63 0 0 -42.01zm97.21 -293.15l9.31 -1.85 0 -0.9 -106.51 -32.12 0 -48.69 192.66 68.05c11.96,4.77 22.07,11.22 30.27,19.43 8.2,8.14 12.33,20.37 12.33,36.72 0,3.81 -0.32,7.35 -0.95,10.64 -0.59,3.22 -1.49,7.19 -2.6,11.85l-32.96 -5.29c0.21,-1.33 0.42,-2.81 0.63,-4.34 0.21,-1.54 0.32,-2.97 0.32,-4.18 0,-7.46 -1.85,-13.18 -5.51,-17.2 -3.7,-4.02 -8.25,-7.14 -13.75,-9.31l-13.02 -5.3 -167.42 59.54 0 -48.69 97.21 -28.36z"/>
    </g>
   </g>
  </g>
 </g>
</svg>
